<?xml version="1.0" standalone="no"?>
<!DOCTYPE svg PUBLIC "-//W3C//DTD SVG 20010904//EN"
 "http://www.w3.org/TR/2001/REC-SVG-20010904/DTD/svg10.dtd">
<svg version="1.0" xmlns="http://www.w3.org/2000/svg"
 width="1887.000000pt" height="919.000000pt" viewBox="0 0 1887.000000 919.000000"
 preserveAspectRatio="xMidYMid meet">
<metadata>
Created by potrace 1.16, written by Peter Selinger 2001-2019
</metadata>
<g transform="translate(0.000000,919.000000) scale(0.100000,-0.100000)"
fill="#000000" stroke="none">
<path d="M15605 9005 c-83 -29 -145 -132 -130 -214 14 -77 73 -142 146 -161
161 -44 300 132 224 281 -31 58 -116 110 -180 109 -11 -1 -38 -7 -60 -15z m92
-85 c109 0 110 -2 93 -84 l-11 -55 -82 -4 -82 -3 93 -2 c74 -2 92 -5 92 -17 0
-8 -9 -15 -19 -15 -13 0 -21 -8 -23 -22 -2 -15 -10 -23 -23 -23 -11 0 -24 10
-30 23 -11 24 -35 30 -35 8 0 -20 -25 -37 -44 -30 -9 3 -16 13 -16 21 0 9 -8
21 -17 28 -15 11 -16 15 -3 30 16 19 15 34 -1 98 -6 24 -16 37 -27 37 -15 1
-15 2 2 15 13 10 23 12 30 5 5 -5 52 -10 103 -10z"/>
<path d="M3094 8920 c-21 -8 -54 -46 -54 -62 0 -5 16 -8 35 -8 38 0 42 -5 20
-34 -22 -28 -18 -43 10 -48 36 -7 75 2 75 17 0 8 7 20 15 29 9 8 11 17 6 21
-6 3 -8 12 -5 20 7 17 -47 75 -68 74 -7 0 -23 -4 -34 -9z"/>
<path d="M9555 8185 c-36 -35 -35 -96 1 -124 36 -28 79 -27 109 4 39 38 31
106 -16 130 -40 21 -66 19 -94 -10z m113 -29 c28 -57 -27 -123 -82 -98 -35 16
-52 55 -40 90 19 55 97 61 122 8z"/>
<path d="M521 6678 c1 -83 4 -122 9 -103 l8 30 2 -30 c2 -24 4 -21 9 15 6 43
8 45 37 45 20 -1 30 3 27 11 -2 6 3 14 11 17 9 4 16 13 16 22 0 8 7 15 15 15
8 0 15 -7 15 -15 0 -8 -7 -15 -15 -15 -8 0 -15 -4 -15 -10 0 -14 4 -13 46 12
37 22 38 22 13 29 -23 7 -23 7 -1 8 12 1 22 6 22 13 0 9 3 9 11 1 7 -7 32 -9
65 -6 36 4 59 2 69 -7 8 -7 15 -8 15 -3 0 12 100 35 138 32 15 -1 34 1 42 3
86 31 202 40 216 17 7 -12 34 -12 34 0 0 5 -8 12 -17 14 -10 3 1 5 24 6 23 0
45 -3 48 -9 3 -5 11 -10 17 -10 7 0 6 5 -1 14 -10 12 -2 14 51 10 35 -2 131
-6 213 -9 83 -3 173 -10 200 -16 28 -6 62 -12 77 -13 16 -2 38 -11 49 -22 15
-13 23 -15 26 -7 3 7 18 10 41 7 69 -10 81 -14 84 -32 3 -14 15 -17 68 -18 82
-1 130 -12 130 -29 0 -13 24 -15 36 -2 15 15 45 7 42 -10 -2 -12 3 -17 14 -15
23 4 60 -16 53 -29 -4 -5 2 -12 12 -15 10 -3 32 -12 48 -19 17 -8 42 -17 58
-20 18 -3 27 -12 27 -24 0 -22 26 -36 34 -18 3 8 9 7 19 -5 8 -10 28 -18 46
-18 27 0 31 -4 32 -27 l1 -28 8 30 c4 17 8 105 9 198 l1 167 -1120 0 -1120 0
1 -132z"/>
<path d="M5740 6055 l0 -755 38 0 c20 0 68 7 105 16 63 16 70 16 84 1 20 -20
24 -18 -120 -48 -87 -18 -107 -25 -105 -38 3 -15 103 -16 1121 -19 l1117 -2 0
464 0 464 -126 43 c-70 23 -132 49 -139 56 -8 7 -17 13 -20 13 -4 0 -18 9 -32
20 -14 11 -34 20 -45 20 -11 0 -28 10 -39 23 -24 29 -24 36 1 30 24 -6 26 9 5
27 -18 15 -20 30 -2 30 6 -1 30 -9 52 -20 22 -11 45 -19 51 -20 6 0 59 -20
118 -45 60 -25 110 -45 112 -45 2 0 4 6 4 13 0 15 -24 28 -132 74 -37 15 -68
31 -68 35 0 4 9 10 21 13 12 4 17 11 13 15 -5 4 -110 54 -234 110 -124 56
-249 113 -277 126 -37 16 -53 30 -53 43 0 14 -14 23 -57 37 -37 12 -58 25 -58
34 0 12 17 16 85 18 68 2 148 -9 400 -53 401 -72 409 -73 415 -67 3 3 5 36 5
74 l0 68 -617 -1 c-462 0 -612 -3 -593 -11 25 -11 25 -11 3 -15 -24 -5 -32
-23 -10 -23 8 0 7 -4 -3 -10 -8 -5 -46 -9 -85 -9 -38 0 -64 3 -57 6 6 2 12 11
12 19 0 9 11 14 28 14 16 0 37 7 48 15 17 13 -38 14 -473 15 l-493 0 0 -755z
m1495 531 l200 -109 32 -71 c53 -115 141 -312 168 -373 10 -24 22 -43 27 -43
4 0 14 14 23 30 9 17 19 30 23 30 5 0 21 -13 37 -30 24 -25 26 -31 14 -46 -10
-12 -24 -15 -59 -11 l-46 6 -77 -112 c-77 -113 -327 -524 -327 -539 0 -4 -5
-8 -11 -8 -25 0 -195 33 -202 40 -4 3 49 61 119 128 80 78 119 122 107 122
-10 -1 -96 -18 -192 -39 l-174 -39 -51 21 c-28 11 -55 24 -60 29 -6 4 -20 8
-31 8 -16 0 -21 -6 -21 -22 1 -20 -5 -24 -47 -29 -54 -6 -101 15 -76 33 11 7
9 8 -4 4 -15 -5 -58 14 -77 34 -3 3 -14 10 -25 16 -11 6 -21 20 -23 32 -3 20
1 21 125 20 148 0 217 8 234 28 10 12 2 14 -47 15 -33 1 -80 1 -107 -1 -106
-5 -186 23 -129 45 25 9 219 24 342 26 93 2 99 3 50 9 -30 5 -94 8 -141 9 -63
1 -90 5 -99 16 -6 8 -38 17 -71 21 -32 4 -59 10 -59 15 0 11 55 49 72 49 7 0
18 8 25 19 10 16 6 22 -37 45 -26 14 -59 26 -72 26 -32 0 -41 10 -26 27 8 10
8 17 0 25 -13 13 -78 -26 -125 -74 -26 -27 -31 -28 -123 -28 -87 0 -96 2 -101
20 -3 11 -11 20 -18 20 -8 0 -23 12 -34 26 -15 19 -22 22 -25 13 -13 -41 -14
-43 -15 -21 -1 17 -7 22 -26 22 -28 0 -49 31 -40 60 4 11 -1 30 -9 42 -20 28
-20 38 -1 38 8 0 24 -18 35 -39 16 -33 40 -61 40 -49 0 2 -29 59 -65 127 -64
121 -65 125 -65 201 0 71 3 81 32 121 44 62 108 117 108 93 0 -3 -17 -26 -37
-51 -34 -41 -36 -46 -20 -58 15 -10 15 -14 3 -24 -8 -6 -16 -22 -20 -34 -4
-18 -2 -17 19 8 13 17 24 33 25 38 0 4 5 7 10 7 17 0 11 -24 -12 -51 -39 -43
-58 -89 -58 -137 0 -44 4 -50 53 -93 38 -34 57 -60 70 -98 l18 -51 69 0 c83 0
105 7 89 26 -9 12 -5 14 27 14 22 0 46 5 54 10 10 7 -9 10 -64 10 -44 0 -77 2
-75 4 8 7 269 14 269 7 0 -4 -11 -18 -25 -31 -46 -43 -22 -75 34 -46 53 28 81
66 81 111 0 40 -1 40 -83 86 -80 46 -85 47 -215 59 -90 9 -132 16 -129 24 38
91 103 215 116 219 9 3 95 35 191 71 l175 66 180 -3 180 -2 200 -109z m-1196
-1037 c52 -23 55 -23 48 -6 -6 17 40 4 290 -77 168 -55 176 -57 295 -59 92 -2
132 -6 158 -19 35 -17 34 -17 -95 -14 -101 2 -150 9 -220 28 -49 14 -108 28
-130 32 l-40 7 30 -25 30 -26 -41 4 c-52 4 -126 36 -120 53 3 7 -1 10 -9 7 -7
-3 -33 6 -58 20 -34 20 -57 26 -108 26 -58 1 -67 4 -102 34 -56 50 -25 57 72
15z"/>
<path d="M6941 6332 c-70 -15 -126 -32 -129 -39 -2 -8 6 -13 24 -13 26 0 27
-1 10 -19 -21 -23 -13 -45 12 -32 35 18 225 35 277 24 49 -10 48 -11 -42 -12
-71 -1 -113 -7 -178 -28 -47 -15 -85 -30 -85 -34 0 -3 19 -11 43 -17 71 -18
87 -20 82 -12 -5 8 28 50 39 50 4 0 20 -10 36 -21 23 -17 36 -20 67 -14 21 4
44 11 50 17 7 6 20 8 28 4 9 -3 34 2 57 11 l41 16 -37 19 c-44 23 -46 29 -6
22 36 -8 39 0 8 18 -14 8 -76 15 -163 18 l-140 5 106 23 c134 28 175 28 272
-2 42 -13 77 -21 77 -17 0 4 -37 19 -83 34 -107 35 -198 34 -366 -1z"/>
<path d="M8384 6798 c10 -6 89 -42 175 -80 262 -117 607 -240 740 -263 107
-19 110 -19 104 4 -3 13 -17 20 -51 25 -95 13 -494 159 -750 275 -98 44 -122
51 -175 51 -50 -1 -58 -3 -43 -12z"/>
<path d="M10330 6758 c-285 -135 -544 -236 -694 -269 -53 -11 -78 -30 -62 -46
10 -10 177 27 296 67 63 21 192 73 285 115 160 72 371 165 405 178 8 3 -16 5
-55 5 -63 0 -80 -4 -175 -50z"/>
<path d="M16180 6010 l0 -800 1120 0 1120 0 0 800 0 800 -1120 0 -1120 0 0
-800z m1133 708 l4 -23 8 22 c4 13 11 20 17 17 5 -3 6 -14 3 -25 -4 -11 -2
-19 4 -19 6 0 11 7 11 16 0 8 5 12 10 9 6 -4 7 -11 4 -17 -5 -8 2 -8 22 -3 16
5 39 8 51 8 13 -1 21 3 18 7 -3 5 22 9 55 9 44 0 63 -4 67 -14 3 -8 9 -12 14
-9 5 3 9 -2 9 -10 0 -10 9 -16 23 -16 12 -1 55 -5 95 -9 53 -6 87 -5 123 4 42
11 49 11 49 -1 0 -8 -9 -14 -20 -14 -11 0 -20 -4 -20 -10 0 -5 27 -7 68 -3 63
6 66 5 52 -11 -12 -15 -24 -17 -65 -12 -55 6 -94 -7 -56 -19 11 -3 24 -17 27
-31 5 -18 9 -22 19 -14 9 8 14 6 19 -6 6 -16 -8 -33 -27 -34 -4 0 -12 -12 -17
-26 -8 -21 -15 -25 -35 -22 -22 5 -25 2 -25 -23 0 -20 4 -27 13 -23 19 7 62
-30 53 -44 -4 -7 -16 -12 -27 -12 -10 0 -19 -4 -19 -10 0 -5 11 -10 24 -10 13
0 27 -7 30 -16 4 -9 9 -14 13 -10 3 3 17 -1 31 -10 19 -12 30 -14 48 -5 19 8
22 7 17 -5 -3 -8 -17 -17 -32 -21 -14 -3 -28 -9 -31 -13 -3 -3 -16 -1 -30 6
-21 11 -22 14 -7 20 24 9 21 23 -3 17 -11 -3 -20 0 -20 6 0 6 -5 11 -11 11 -6
0 -9 -7 -5 -15 8 -22 -44 -33 -56 -11 -5 9 -14 13 -20 10 -7 -5 -8 -2 -3 7 14
22 13 49 -1 49 -8 0 -11 -6 -8 -14 3 -7 -2 -16 -11 -20 -9 -3 -18 0 -21 9 -5
11 -22 15 -73 14 -56 -1 -61 -2 -32 -9 19 -5 40 -6 47 -3 6 2 15 -1 19 -7 5
-8 -13 -9 -62 -5 -64 5 -66 4 -38 -9 20 -9 30 -21 30 -37 0 -31 -11 -38 -50
-32 -19 3 -35 0 -39 -6 -4 -7 1 -11 13 -11 12 0 21 -6 22 -12 0 -10 2 -10 6 0
2 6 9 10 14 6 12 -7 12 -54 -1 -54 -5 0 -10 5 -10 10 0 6 -9 10 -19 10 -11 0
-23 4 -26 10 -3 5 -24 14 -46 20 -51 14 -42 28 23 36 l52 7 -45 13 c-24 8 -54
14 -65 14 -16 0 -21 6 -21 25 0 14 5 24 11 23 6 -2 13 2 14 7 3 14 -85 18
-135 6 -23 -6 -83 -12 -133 -12 -76 -1 -90 -4 -90 -18 0 -11 -6 -7 -18 11 -40
61 -99 89 -126 59 -10 -11 -28 -22 -42 -25 -13 -4 -24 -11 -24 -16 0 -6 -7
-10 -16 -10 -14 0 -14 -3 -3 -16 25 -30 -11 -38 -108 -22 -6 1 -9 8 -6 16 4
10 8 11 13 2 6 -9 9 -9 15 -1 9 16 -10 38 -40 45 -24 6 -36 36 -15 36 6 0 10
6 10 14 0 9 15 15 45 18 25 2 45 0 45 -4 0 -11 42 -10 60 2 12 8 13 13 3 30
-20 31 -16 53 7 47 17 -4 20 -2 15 14 -5 16 -1 19 29 19 35 0 55 13 36 25 -5
3 -10 11 -10 17 0 10 14 9 133 -9 24 -4 37 -2 37 6 0 6 -9 11 -20 11 -13 0
-20 7 -20 19 0 22 59 36 75 18 6 -7 39 -12 75 -12 46 0 65 -4 65 -13 0 -17 25
-32 42 -25 17 7 17 23 -1 23 -25 0 -28 31 -5 51 18 15 19 19 6 19 -9 0 -20 -8
-26 -17 -8 -15 -12 -16 -34 -4 -19 10 -25 20 -22 40 2 14 4 32 4 39 1 21 19
13 24 -10z m-357 -403 c-3 -8 -1 -15 4 -15 6 0 10 7 10 15 0 11 11 15 38 15
35 0 40 -3 49 -35 6 -19 9 -43 6 -54 -3 -14 2 -20 24 -24 15 -3 31 -1 34 5 4
7 9 6 13 -1 4 -6 12 -9 17 -5 6 4 6 11 -2 20 -7 9 -8 14 -1 14 6 0 16 -14 24
-30 7 -17 18 -28 25 -25 15 5 18 -21 3 -30 -9 -6 -2 -36 11 -45 12 -8 -6 -31
-27 -34 -12 -2 -21 -14 -25 -32 -5 -21 -7 -23 -8 -8 -1 14 -10 24 -26 28 -14
4 -25 12 -25 19 0 9 -11 12 -34 9 -20 -2 -49 3 -67 12 -17 9 -41 14 -53 11
-11 -3 -45 -7 -75 -9 -29 -2 -56 -8 -60 -14 -4 -7 -14 -6 -30 3 -17 8 -34 10
-54 4 -17 -5 -34 -6 -39 -3 -5 3 -18 -2 -28 -11 -19 -18 -34 -7 -24 18 3 8 1
17 -4 21 -12 7 -53 -4 -47 -14 8 -14 -20 -29 -35 -20 -8 5 -11 12 -8 16 4 3
-2 15 -12 27 -23 24 -18 37 5 13 22 -22 29 -20 51 9 13 17 27 24 50 23 17 -1
37 3 45 8 8 5 65 9 128 9 82 0 115 3 118 13 3 7 -1 10 -9 7 -9 -4 -14 2 -15
15 -1 11 4 20 13 20 9 0 14 10 14 28 0 30 7 42 23 42 5 0 7 -7 3 -15z m1005
-195 c5 -3 11 -51 13 -105 3 -58 2 -92 -3 -80 -4 11 -6 26 -3 34 3 9 1 12 -6
7 -7 -4 -12 -3 -12 2 0 11 -271 14 -285 3 -5 -5 -21 -11 -35 -15 -21 -5 -20
-4 4 8 l30 13 -24 8 c-15 5 -25 4 -28 -4 -4 -12 -29 -15 -34 -3 -4 8 -74 42
-89 42 -6 0 3 -13 19 -30 17 -16 35 -30 41 -30 16 0 13 -20 -4 -26 -8 -4 -21
-2 -28 4 -6 6 -23 12 -37 14 -17 2 -26 10 -28 25 -4 25 -26 47 -44 41 -8 -3
-4 -12 10 -26 12 -12 18 -22 13 -22 -5 0 -14 7 -22 16 -7 8 -25 22 -41 30 -28
14 -31 13 -68 -16 -22 -18 -40 -28 -40 -23 0 6 11 16 25 23 27 15 35 33 10 23
-10 -3 -15 0 -13 8 2 8 -3 13 -9 12 -7 -2 -13 5 -13 15 0 9 -3 28 -6 42 -4 20
-3 22 5 10 8 -11 11 -12 11 -2 0 11 28 13 136 9 136 -5 159 -12 147 -43 -6
-17 51 -28 77 -14 11 6 26 8 32 4 6 -4 39 -8 72 -8 56 -1 61 -3 60 -23 0 -12
3 -20 7 -17 4 2 10 -2 12 -8 3 -7 3 2 0 20 -4 26 -2 32 11 32 10 0 15 3 13 8
-3 4 -1 16 4 27 7 17 8 16 8 -8 1 -28 4 -31 54 -41 21 -5 27 -12 28 -34 l1
-27 7 25 c5 14 7 50 5 80 -1 30 0 48 3 40 3 -8 10 -17 14 -20z m-996 -110 c4
-6 10 -8 15 -5 4 3 14 -2 21 -11 10 -13 10 -17 -2 -25 -12 -8 -12 -11 3 -19
14 -8 16 -25 8 -50 -1 -3 -1 -22 0 -42 1 -26 -3 -38 -12 -38 -11 0 -11 -2 0
-9 10 -6 8 -10 -10 -14 -16 -5 -27 -1 -38 14 -14 18 -21 19 -58 11 -23 -6 -42
-7 -42 -3 0 3 -5 -1 -10 -9 -7 -12 -12 -12 -22 -2 -14 14 -48 16 -48 2 0 -5
11 -10 24 -10 14 0 28 -4 31 -10 3 -5 21 -10 38 -10 l32 -1 -24 -19 -23 -20
26 0 c14 0 26 -2 26 -4 0 -2 3 -11 6 -19 3 -8 -6 -26 -21 -41 l-26 -26 63 -2
c35 0 68 -2 73 -3 6 -2 16 -3 23 -4 6 0 12 -8 12 -16 0 -13 3 -13 20 -3 16 10
24 10 40 0 11 -6 31 -12 45 -12 14 0 37 -11 50 -24 15 -15 33 -23 45 -21 18 3
20 0 14 -18 -10 -31 -25 -38 -48 -21 -11 8 -32 14 -46 14 -24 0 -23 -1 10 -22
81 -49 103 -58 143 -59 38 -1 137 -25 137 -34 0 -19 -17 -35 -38 -35 -14 0
-23 -2 -20 -5 3 -3 29 -6 59 -6 53 -1 109 -17 109 -31 0 -13 -21 -9 -37 8 -12
11 -25 14 -47 9 -17 -5 -41 -8 -53 -9 -12 -1 -18 -5 -14 -9 5 -5 28 -3 51 3
50 14 70 2 41 -24 -23 -21 -143 -31 -174 -15 -10 6 -22 7 -25 3 -4 -4 -1 -9 6
-11 6 -3 12 -9 12 -13 0 -5 -44 -7 -97 -5 -78 3 -102 8 -124 24 -17 13 -44 21
-67 21 -26 0 -45 7 -57 20 -10 11 -25 20 -34 20 -17 0 -44 47 -35 61 3 5 -2 9
-10 9 -8 0 -18 -4 -21 -10 -11 -18 -55 -12 -55 8 0 21 -68 56 -84 43 -25 -19
-56 -18 -81 1 -20 16 -23 23 -14 34 9 11 8 14 -5 14 -9 0 -16 -8 -16 -17 -1
-10 -7 -3 -15 16 -8 18 -13 37 -10 41 3 4 -2 27 -10 50 -16 45 -20 117 -7 137
4 6 19 14 34 17 14 2 36 10 48 16 12 6 24 9 27 6 10 -9 47 23 50 43 2 14 -5
20 -28 25 -27 5 -30 8 -19 21 11 13 8 15 -14 15 -29 0 -35 16 -8 23 9 3 44 4
77 3 33 -1 66 2 72 7 7 5 20 7 28 3 17 -6 19 2 6 23 -5 7 -14 10 -20 7 -6 -4
-11 -2 -11 4 0 6 -4 9 -9 5 -16 -10 -21 12 -6 25 17 14 65 5 65 -12 0 -7 7 -3
15 8 15 20 20 12 16 -28 -2 -13 3 -16 14 -12 10 4 13 13 9 26 -9 29 35 53 51
28z m726 -82 c0 -18 0 -77 -1 -131 -1 -76 2 -101 14 -113 9 -8 20 -13 25 -10
5 3 11 -1 15 -9 3 -8 15 -15 26 -15 12 0 41 -12 66 -26 l44 -26 0 -76 c0 -69
-1 -74 -15 -56 -14 18 -14 18 -15 -6 0 -22 -1 -23 -16 -8 -17 17 -11 63 7 53
5 -4 9 12 9 34 0 23 -2 41 -4 41 -2 0 -11 3 -20 6 -12 5 -16 -1 -16 -22 0 -28
-20 -73 -20 -46 0 6 -4 12 -10 12 -5 0 -10 -9 -10 -20 0 -11 -7 -23 -16 -27
-9 -3 -15 -16 -14 -32 3 -46 1 -53 -17 -47 -9 4 -19 3 -22 -1 -8 -11 -121 -4
-121 8 0 5 19 6 43 3 32 -5 46 -2 56 10 12 14 11 19 -4 36 -10 11 -24 20 -31
20 -7 0 -15 18 -19 40 -6 33 -11 40 -30 40 -42 0 -81 64 -56 94 6 7 8 16 4 20
-4 4 -8 22 -9 39 -1 18 -4 60 -8 95 -6 55 -5 63 11 68 20 6 26 10 93 54 25 16
48 30 53 30 4 0 7 -15 8 -32z m-1407 -63 c-5 -27 -3 -36 10 -41 9 -3 16 -12
16 -19 0 -6 9 -20 20 -30 11 -10 20 -13 20 -7 0 7 12 12 26 12 19 0 25 -4 20
-15 -6 -18 5 -20 21 -4 8 8 13 5 18 -10 3 -12 17 -24 31 -27 33 -8 40 -26 49
-111 7 -77 1 -93 -17 -42 l-11 31 -13 -31 c-9 -22 -26 -37 -59 -51 -57 -25
-58 -25 -45 -1 13 25 13 34 0 26 -5 -3 -10 -1 -10 6 0 6 -8 9 -20 6 -10 -3
-25 1 -31 9 -10 12 -14 12 -24 -3 -8 -10 -17 -14 -22 -10 -4 5 5 18 20 29 27
19 27 21 11 39 -9 10 -19 40 -22 66 -2 27 -7 49 -11 51 -13 5 6 162 20 162 6
0 7 -14 3 -35z m826 27 c0 -4 -6 -14 -12 -21 -10 -11 -10 -14 0 -18 6 -3 12
-17 12 -32 0 -15 3 -31 8 -35 4 -4 7 -12 7 -17 0 -5 5 -9 10 -10 6 0 16 -6 24
-12 11 -10 12 -6 6 21 -5 23 -2 40 9 57 9 13 16 31 16 40 0 24 18 18 22 -7 2
-14 11 -24 23 -26 64 -9 62 -7 58 -69 -3 -41 -1 -54 6 -43 5 8 12 12 14 10 2
-3 11 -16 20 -30 9 -13 17 -19 17 -12 0 24 27 -12 34 -44 5 -22 2 -35 -9 -44
-14 -11 -17 -10 -22 9 -5 20 -11 22 -39 18 -22 -4 -37 -1 -45 9 -6 8 -18 14
-25 14 -8 0 -46 16 -85 36 l-71 35 4 40 c2 21 1 40 -3 41 -3 2 -9 24 -13 51
-7 43 -6 47 13 47 12 0 21 -4 21 -8z m-390 -495 c0 -20 27 -29 34 -11 7 19 25
18 33 -3 3 -10 14 -25 23 -33 14 -11 16 -21 9 -37 -9 -23 -32 -33 -24 -10 5
12 -59 47 -87 47 -11 0 -14 8 -11 28 2 15 -4 5 -14 -22 -22 -59 -48 -79 -67
-54 -7 10 -15 16 -18 13 -7 -7 0 83 7 95 4 7 19 9 35 5 18 -4 33 -1 41 8 11
11 16 12 26 1 7 -7 13 -19 13 -27z"/>
<path d="M14215 6789 c-121 -6 -174 -12 -219 -28 -261 -92 -418 -322 -377
-552 18 -100 61 -178 134 -245 34 -31 74 -61 89 -66 16 -6 25 -14 22 -20 -3
-5 3 -12 15 -15 11 -3 19 -8 17 -12 -7 -10 153 -83 181 -83 13 0 26 -5 29 -10
7 -11 242 -9 250 3 3 5 24 9 47 9 69 0 193 37 280 82 288 150 394 489 230 735
-43 64 -95 111 -171 151 -118 63 -175 68 -527 51z m210 -89 c103 -50 183 -143
226 -262 24 -64 41 -76 76 -53 13 9 29 13 35 9 6 -4 8 -3 5 3 -4 6 3 19 14 29
l21 19 -15 -37 c-9 -21 -15 -38 -13 -38 2 0 20 7 39 15 20 8 51 15 69 14 31 0
29 -2 -22 -21 -59 -23 -58 -24 25 -47 22 -6 49 -17 60 -25 18 -13 16 -14 -25
-5 -25 6 -61 7 -80 4 -40 -8 -93 -42 -85 -56 4 -5 2 -9 -3 -9 -17 0 -22 13 -9
28 8 11 8 14 0 9 -6 -4 -14 -3 -18 3 -8 13 -55 13 -75 0 -9 -6 -17 -5 -22 3
-6 9 -8 9 -8 0 0 -6 -9 -10 -20 -8 -13 3 -18 0 -14 -7 5 -8 -9 -9 -50 -4 -42
4 -64 2 -86 -9 -54 -28 -69 -10 -26 30 20 18 32 21 77 17 69 -5 58 7 -14 17
-44 6 -57 4 -66 -8 -9 -13 -9 -12 -2 5 6 12 8 23 6 26 -3 2 23 4 58 4 60 -1
90 -12 80 -29 -3 -5 3 -7 12 -5 10 1 20 9 21 16 1 7 0 8 -2 3 -3 -5 -13 -2
-23 8 -13 13 -31 17 -69 16 -29 -1 -52 -1 -52 0 0 2 9 22 20 46 28 62 24 83
-5 29 -13 -25 -25 -40 -26 -35 -5 35 -2 59 18 130 12 44 21 81 19 82 -7 7 -56
-98 -66 -141 -14 -62 -41 -125 -47 -109 -3 7 3 46 12 85 9 40 19 90 21 112 2
21 7 43 11 50 4 7 2 8 -5 1 -6 -5 -21 -50 -33 -100 -12 -49 -26 -98 -31 -108
-4 -9 -6 -28 -2 -42 3 -14 2 -25 -2 -25 -11 0 -34 48 -34 71 0 20 -34 96 -55
123 -19 25 -19 23 1 -61 9 -37 17 -80 19 -95 2 -15 9 -37 15 -48 7 -14 8 -20
0 -20 -6 0 -13 7 -16 15 -4 8 -12 15 -19 15 -8 0 -37 23 -66 51 l-52 50 28
-46 c26 -46 30 -70 5 -40 -9 11 -17 12 -31 4 -15 -7 -19 -6 -19 5 0 29 -49 26
-134 -9 -18 -8 -19 -5 -12 35 18 116 134 253 269 320 91 46 98 46 192 0z m85
-455 c38 -1 121 -18 125 -25 5 -8 -55 -30 -82 -30 -7 0 -13 -5 -13 -10 0 -6
11 -8 27 -4 15 4 34 7 42 7 8 0 23 9 33 19 11 11 26 17 34 14 9 -3 24 -1 35 4
15 8 19 7 19 -4 0 -10 6 -13 17 -9 11 4 14 3 9 -5 -4 -7 -2 -12 3 -12 6 0 11
7 11 16 0 12 5 14 18 9 9 -4 28 -9 42 -11 23 -4 23 -3 5 6 -18 9 -18 10 5 8
14 -1 30 1 37 5 8 5 11 1 8 -13 -2 -11 -1 -19 3 -19 47 7 54 -16 17 -51 -16
-15 -23 -30 -19 -42 5 -17 -5 -23 -30 -19 -5 1 -3 -5 4 -15 12 -14 12 -18 -5
-30 -22 -16 -41 -18 -50 -4 -9 15 -18 13 -59 -15 -27 -19 -45 -23 -77 -20 -22
2 -46 8 -52 13 -19 16 -68 17 -115 3 -29 -8 -47 -9 -56 -2 -7 6 -17 6 -26 1
-20 -13 -67 -12 -75 0 -4 6 -16 3 -32 -10 -31 -24 -61 -25 -92 -4 -19 14 -25
14 -31 3 -7 -10 -14 -10 -33 -2 -14 7 -34 9 -46 6 -11 -3 -36 -2 -55 1 -35 7
-60 37 -93 110 -17 37 -17 79 0 71 6 -4 3 1 -8 11 -18 15 -18 16 -2 10 10 -3
28 -6 38 -6 11 0 17 -4 14 -10 -3 -5 -2 -10 3 -10 6 0 9 -8 8 -17 -1 -13 7
-19 27 -21 19 -2 27 1 27 12 0 9 3 16 8 16 4 0 18 3 31 7 18 5 22 3 16 -7 -11
-19 45 -4 65 17 13 14 13 15 -1 10 -9 -3 -26 1 -38 9 -12 8 -26 12 -33 8 -7
-4 -8 -3 -4 5 8 13 30 8 84 -17 25 -11 36 -12 45 -3 14 14 30 15 22 1 -3 -5
-1 -10 5 -10 7 0 5 -7 -4 -16 -9 -8 -16 -20 -16 -27 0 -6 6 -3 13 7 7 10 26
19 43 19 16 1 35 8 43 15 8 8 25 12 39 9 15 -3 31 2 43 14 11 11 26 19 34 19
9 0 12 6 8 17 -5 12 -3 14 8 7 8 -5 21 -9 29 -9z"/>
<path d="M7697 6553 c-4 -3 -7 -16 -7 -27 0 -16 32 -40 140 -103 76 -46 141
-83 144 -83 3 0 6 41 6 90 l0 90 -32 0 c-18 0 -62 9 -96 20 -63 20 -142 26
-155 13z"/>
<path d="M11500 6490 c11 -21 20 -41 20 -43 0 -3 -13 -7 -29 -10 -16 -4 -38
-15 -49 -27 -11 -12 -26 -18 -35 -15 -9 4 -17 0 -19 -10 -2 -13 -8 -12 -37 10
-39 28 -61 34 -37 9 23 -23 20 -25 -18 -9 -47 20 -57 1 -11 -21 72 -34 56 -58
-30 -44 -63 10 -101 -3 -41 -14 19 -4 44 -18 54 -31 l19 -24 26 31 c15 16 27
27 27 23 0 -4 22 13 48 37 27 24 66 52 88 62 146 68 142 66 103 60 -30 -5 -41
-1 -58 17 -11 13 -21 26 -21 31 0 4 -5 8 -10 8 -6 0 -1 -18 10 -40z"/>
<path d="M1427 6483 c-14 -13 -6 -22 21 -25 20 -2 28 -9 30 -28 3 -25 2 -25
-80 -28 -130 -5 -187 -37 -217 -121 -17 -48 -17 -59 -5 -93 7 -21 10 -37 6
-35 -4 2 -39 23 -79 46 -53 30 -87 43 -130 47 -53 6 -61 4 -99 -24 -56 -41
-138 -82 -164 -82 -25 0 -80 -27 -80 -39 0 -5 -16 -32 -35 -61 -35 -52 -46
-95 -23 -88 7 3 25 27 41 54 35 60 44 66 81 58 19 -4 44 1 77 16 51 25 79 22
79 -8 0 -23 -24 -45 -70 -62 -58 -22 -98 -58 -120 -107 -26 -58 -25 -103 1
-147 l21 -36 -44 6 c-28 4 -56 0 -80 -10 l-38 -16 0 -245 0 -245 1120 0 1120
0 0 275 0 275 -45 0 -46 0 7 58 c7 69 -6 102 -59 149 -56 49 -115 66 -202 61
-86 -6 -91 0 -45 57 34 42 37 60 14 69 -36 14 -54 7 -54 -21 0 -63 -52 -110
-111 -101 -22 3 -21 5 14 25 47 28 65 64 50 103 -10 26 -9 28 18 34 16 3 29
12 29 20 0 15 -34 27 -111 41 -31 6 -35 10 -32 29 3 13 -2 29 -10 38 -8 8 -24
32 -35 54 -17 33 -32 45 -81 66 -34 15 -61 22 -61 18 0 -5 9 -14 20 -20 11 -6
27 -22 36 -36 16 -23 16 -26 -5 -48 -11 -12 -21 -32 -21 -43 0 -31 -17 -40
-100 -52 -84 -13 -105 -25 -77 -46 15 -11 16 -17 8 -34 -6 -11 -11 -28 -11
-39 0 -15 -9 -21 -32 -25 -18 -2 -34 -4 -36 -2 -1 1 4 15 13 31 29 57 15 144
-31 186 -35 31 -151 71 -188 64 -31 -6 -34 -4 -41 21 -9 40 -44 73 -75 73 -15
0 -30 -3 -33 -7z m343 -302 c-6 -12 -23 -24 -38 -27 -15 -4 -36 -14 -46 -23
-14 -12 -20 -13 -23 -3 -7 18 -30 15 -43 -5 -8 -13 -13 -14 -16 -5 -7 16 -46
16 -62 0 -10 -10 -17 -10 -32 0 -15 9 -26 10 -41 1 -15 -8 -24 -8 -32 0 -15
15 -54 14 -59 -1 -3 -8 -11 -5 -23 10 -16 17 -26 20 -56 16 -31 -5 -39 -2 -57
21 -39 49 -23 62 23 19 25 -23 30 -24 52 -13 22 12 26 11 34 -4 12 -21 59 -23
59 -2 0 8 7 15 15 15 9 0 18 -7 21 -15 4 -8 17 -15 30 -15 14 0 27 7 30 15 4
8 10 15 15 15 5 0 9 -7 9 -15 0 -10 11 -15 35 -15 24 0 35 5 35 15 0 8 7 15
15 15 8 0 15 -4 15 -10 0 -13 37 -13 45 0 3 6 17 7 31 4 17 -4 24 -2 24 8 0
16 43 40 48 27 2 -4 -2 -17 -8 -28z m132 -110 c24 -15 61 -32 83 -38 22 -5 40
-13 40 -18 -1 -6 -27 -24 -59 -41 -54 -28 -74 -45 -95 -82 -12 -20 -61 -4 -74
25 -8 18 -8 29 1 44 10 16 10 27 0 56 -12 33 -11 36 15 59 35 30 37 30 89 -5z
m-519 -25 c70 -16 243 -15 275 3 44 24 33 4 -18 -33 -30 -21 -50 -44 -50 -55
0 -17 -10 -19 -112 -23 -118 -4 -148 5 -148 42 0 8 -9 30 -20 48 -24 38 -19
40 73 18z m707 -261 c81 -31 309 -35 343 -6 9 7 24 10 33 7 9 -4 27 1 40 9 30
19 31 9 2 -22 -13 -14 -33 -23 -50 -23 -17 0 -27 -4 -23 -10 18 -29 -153 -42
-205 -15 -20 10 -36 12 -52 6 -14 -5 -31 -5 -40 0 -13 7 -48 14 -90 18 -9 1
-38 56 -38 72 0 8 6 7 18 -4 9 -8 37 -23 62 -32z m-1320 -15 c21 -21 40 -26
40 -11 0 20 39 21 73 1 l35 -21 5 21 c7 26 44 26 52 0 4 -13 15 -20 30 -20 14
0 29 9 35 20 15 27 40 26 40 -3 0 -20 4 -22 40 -19 31 3 40 8 40 23 0 23 19
25 35 3 10 -14 15 -15 36 -3 13 8 35 15 49 16 14 0 36 4 50 9 25 7 25 7 6 -14
-11 -12 -29 -22 -41 -22 -14 0 -25 -8 -28 -21 -5 -17 -10 -19 -41 -13 -29 5
-36 3 -36 -10 0 -20 -36 -21 -44 -1 -8 22 -56 20 -57 -2 0 -13 -2 -14 -6 -4
-5 11 -7 11 -14 0 -7 -11 -11 -10 -22 5 -14 19 -15 19 -42 2 -20 -13 -30 -15
-38 -7 -15 15 -64 14 -69 -1 -3 -9 -12 -9 -36 1 -18 7 -32 17 -32 22 0 5 -15
9 -34 9 -32 0 -86 32 -86 51 0 16 40 9 60 -11z m781 -36 c30 -4 51 -3 47 1
-11 11 11 35 31 35 10 0 26 -7 37 -15 15 -12 16 -16 5 -24 -11 -7 -8 -11 10
-17 38 -12 112 -4 134 14 11 9 6 1 -11 -17 -27 -28 -38 -33 -90 -36 -32 -2
-69 -6 -80 -10 -12 -4 -25 -2 -28 4 -4 6 -22 11 -40 11 -25 0 -40 9 -64 36
-18 20 -32 41 -32 47 0 7 6 4 13 -5 8 -10 35 -20 68 -24z"/>
<path d="M15412 6472 c-63 -23 -98 -53 -123 -107 -44 -95 -6 -188 94 -230 52
-22 165 -44 196 -39 64 12 99 26 134 55 109 90 108 243 -1 311 -52 32 -221 38
-300 10z m183 -27 c25 -14 49 -39 59 -60 14 -28 23 -35 45 -35 33 0 54 -20 45
-44 -7 -17 -34 -22 -34 -6 0 20 -18 9 -22 -14 -4 -18 0 -26 14 -29 10 -3 15
-1 12 4 -3 6 6 7 23 3 37 -9 36 -7 16 -42 -21 -37 -32 -39 -196 -37 -112 2
-129 4 -142 21 -19 25 -19 54 1 54 8 0 12 -4 9 -10 -3 -5 -2 -10 4 -10 5 0 12
4 15 9 3 5 16 7 28 3 14 -3 19 -1 14 6 -5 8 2 8 24 1 17 -6 41 -8 53 -4 12 3
38 9 57 12 39 6 43 8 46 26 1 9 -12 13 -37 13 -41 0 -47 -4 -28 -23 9 -9 7
-10 -9 -6 -12 3 -20 9 -17 13 10 15 -28 20 -44 6 -21 -19 -46 -5 -39 22 6 23
-9 55 -23 46 -5 -3 -7 -15 -3 -27 6 -19 5 -20 -10 -8 -13 11 -19 11 -31 1 -12
-10 -15 -9 -15 6 0 45 83 125 139 133 2 1 23 -10 46 -24z"/>
<path d="M12010 6383 c0 -15 -10 -18 -65 -18 -45 0 -65 4 -65 13 0 6 -7 12
-15 12 -12 0 -13 -4 -5 -19 5 -11 10 -30 10 -43 0 -22 -2 -21 -26 10 -14 17
-32 32 -39 32 -8 0 0 -14 17 -31 24 -23 28 -33 18 -39 -8 -5 -19 -1 -29 11 -9
11 -34 22 -56 25 l-40 6 33 -21 c17 -11 32 -28 32 -36 0 -15 -2 -15 -22 -1
-31 22 -45 20 -25 -2 10 -10 17 -21 17 -23 0 -3 -26 0 -57 6 -32 7 -60 11 -62
9 -8 -7 12 -24 29 -24 22 0 50 -25 50 -45 0 -12 -5 -11 -27 1 -16 7 -44 13
-63 13 -35 -1 -35 -2 7 -8 40 -7 73 -25 73 -42 0 -4 -12 -1 -27 7 -16 7 -46
14 -67 14 -22 0 -36 3 -33 7 6 5 -49 53 -61 53 -2 0 6 -12 17 -26 22 -28 28
-54 12 -54 -6 0 -26 10 -46 21 -29 17 -42 20 -67 13 -41 -12 -45 -28 -13 -42
15 -7 24 -16 20 -21 -3 -5 -1 -12 5 -16 5 -3 10 -11 10 -16 0 -5 -18 0 -41 11
-40 21 -69 21 -69 0 0 -5 6 -10 13 -10 8 0 22 -9 31 -19 22 -25 13 -58 -20
-73 -18 -8 -22 -16 -18 -34 10 -37 -4 -65 -29 -59 -33 8 -90 -30 -82 -54 4
-14 0 -21 -15 -26 -34 -11 -22 -21 23 -18 l42 3 -35 -11 c-55 -17 -60 -30 -9
-23 49 7 89 -7 89 -31 0 -7 9 -16 19 -20 37 -12 32 -32 -11 -38 -41 -5 -82
-33 -72 -49 3 -4 17 1 31 12 14 11 40 20 57 19 l31 -1 -35 -10 c-44 -12 -63
-30 -54 -52 6 -16 8 -16 28 2 41 37 106 34 106 -5 0 -12 -7 -14 -35 -10 -25 4
-33 2 -29 -5 5 -7 1 -9 -9 -5 -22 8 -30 -8 -17 -33 15 -28 48 -26 59 4 12 30
35 38 66 24 35 -16 39 -7 19 38 -9 22 -16 42 -16 46 1 4 -7 10 -18 13 -11 4
-20 11 -20 16 0 5 -7 9 -16 9 -8 0 -12 5 -9 10 3 6 2 10 -3 10 -6 0 -13 7 -16
16 -5 13 -2 15 14 11 11 -3 17 -1 14 4 -3 6 0 16 6 24 10 12 9 15 -4 15 -10 0
-14 5 -11 10 4 6 16 8 27 4 17 -5 18 -3 9 15 -15 27 -38 27 -46 1 -7 -22 -20
-26 -30 -10 -3 6 -19 10 -35 10 -35 0 -47 26 -23 52 11 13 25 17 40 13 32 -8
73 4 73 21 0 8 -4 14 -10 14 -25 0 -5 38 45 87 30 29 55 56 55 60 0 3 8 13 18
22 11 9 24 26 31 39 9 17 20 22 51 22 33 0 41 -4 54 -32 9 -17 16 -39 16 -49
0 -16 -4 -17 -26 -9 -41 16 -86 11 -121 -12 -18 -13 -33 -26 -33 -30 0 -12 38
-10 45 2 9 15 78 12 101 -4 10 -8 19 -26 19 -39 1 -21 -4 -25 -25 -25 -36 1
-90 -12 -90 -22 0 -5 -3 -15 -6 -24 -9 -24 67 -21 118 5 26 13 49 18 65 14 18
-4 31 0 44 14 11 11 19 23 18 27 0 3 9 17 21 31 16 18 19 28 11 36 -13 13 14
47 36 47 18 0 16 7 -7 30 -28 28 -26 57 4 62 14 3 30 1 38 -3 7 -4 18 -3 26 3
16 14 112 28 112 17 0 -5 7 -6 15 -3 11 5 13 2 9 -10 -12 -31 4 -63 36 -69 18
-4 30 -13 30 -22 0 -8 8 -15 18 -15 20 -1 103 -39 84 -40 -7 0 -11 -4 -7 -9 3
-5 -3 -12 -12 -14 -17 -4 -17 -5 0 -6 9 0 17 -5 17 -9 0 -5 34 -9 75 -10 85
-3 130 -16 122 -36 -3 -8 5 -24 18 -36 19 -18 27 -20 45 -10 29 16 113 17 118
2 2 -7 14 -12 26 -12 20 0 22 5 22 47 -1 47 0 48 37 57 33 8 41 7 60 -12 21
-21 21 -22 2 -22 -16 0 -17 -2 -5 -10 9 -5 13 -22 12 -44 -2 -30 1 -36 21 -41
14 -4 30 -17 37 -31 16 -30 24 -30 50 -2 19 20 19 23 3 40 -9 10 -34 21 -55
24 -43 7 -50 21 -14 30 19 4 70 -11 106 -33 3 -2 14 13 24 32 19 35 19 36 0
50 -10 8 -37 14 -59 14 l-40 -1 40 -9 c22 -5 44 -14 50 -20 5 -5 -4 -5 -23 2
-18 6 -46 9 -62 7 -25 -4 -27 -2 -20 13 7 12 3 23 -14 41 -43 48 -133 60 -180
25 -17 -13 -17 -15 -1 -47 l17 -33 -29 7 c-15 3 -32 8 -38 9 -19 5 -60 30 -80
47 -26 22 -53 22 -61 -2 -4 -14 -16 -18 -59 -18 -59 0 -75 12 -51 39 15 16 14
18 -6 17 -16 -1 -22 4 -20 15 1 8 -9 26 -23 39 -32 30 -31 43 3 69 l27 21 -30
-11 c-16 -5 -35 -15 -42 -21 -9 -7 -13 -7 -13 1 0 22 20 51 36 51 8 0 12 5 9
11 -4 6 -14 8 -22 5 -8 -3 -25 1 -38 10 -15 10 -41 14 -77 12 -50 -3 -53 -5
-56 -30 -3 -29 -32 -40 -32 -13 0 18 -58 29 -113 21 -39 -6 -41 -5 -22 10 13
9 37 14 65 13 27 -2 44 2 43 8 -1 6 8 19 20 29 12 10 17 13 11 5 -7 -7 -9 -22
-6 -33 2 -11 8 -15 11 -9 4 5 19 12 34 15 15 2 36 8 47 11 21 7 146 -31 167
-51 6 -6 33 -16 60 -23 26 -7 56 -17 65 -22 27 -14 30 -11 23 22 -5 22 -2 36
12 52 l18 21 -27 -17 c-32 -20 -36 -13 -11 15 15 17 15 20 3 28 -22 14 -26 13
-55 -22 -21 -24 -29 -28 -35 -18 -7 11 -12 11 -23 2 -24 -20 -50 13 -44 55 4
22 2 33 -6 33 -7 0 -22 3 -35 6 -16 5 -22 3 -20 -7 2 -9 -4 -13 -17 -10 -11 2
-40 4 -65 5 -25 0 -48 4 -51 9 -3 4 -11 -4 -19 -18 -7 -14 -17 -25 -22 -25 -5
0 -7 4 -4 9 8 12 -3 41 -15 41 -5 0 -9 -8 -9 -17z"/>
<path d="M9463 6237 c-12 -7 -60 -46 -107 -89 l-85 -76 211 -1 c116 -1 222 -4
235 -7 12 -4 23 -2 22 2 -1 14 -167 158 -197 171 -34 15 -52 15 -79 0z"/>
<path d="M9340 5988 c0 -5 -19 -8 -42 -8 -75 0 -72 11 -64 -262 4 -133 9 -258
13 -277 5 -29 23 -46 132 -127 69 -52 135 -94 146 -94 24 0 239 170 256 202 8
15 10 59 5 147 -3 69 -7 176 -7 236 -1 61 -4 124 -6 142 -5 31 -7 32 -67 38
-94 9 -366 11 -366 3z"/>
<path d="M15195 5930 c-70 -4 -115 -13 -149 -28 -121 -55 -196 -160 -196 -278
0 -87 46 -176 114 -221 26 -18 44 -33 40 -33 -11 0 50 -35 105 -60 33 -16 66
-21 134 -21 51 -1 92 3 96 9 3 5 28 13 55 17 60 9 154 62 207 117 128 132 123
331 -13 438 -85 68 -143 77 -393 60z m139 -44 c43 -18 103 -72 123 -110 9 -17
24 -37 34 -44 11 -7 19 -20 19 -28 0 -8 7 -14 15 -14 19 0 58 -21 68 -38 5 -7
12 -10 18 -7 17 11 9 -12 -11 -30 -20 -18 -20 -18 21 -37 41 -18 42 -19 23
-39 -10 -11 -19 -30 -21 -42 -4 -26 -22 -38 -45 -31 -10 3 -27 -1 -39 -10 -18
-12 -27 -13 -67 -1 -25 8 -50 12 -55 8 -18 -11 -117 -13 -117 -2 0 6 -7 3 -16
-6 -13 -12 -27 -15 -63 -10 -25 3 -62 6 -82 5 -32 -1 -40 4 -60 37 -19 31 -23
50 -23 123 0 76 4 92 27 132 44 76 147 156 200 158 10 0 32 -6 51 -14z"/>
<path d="M11640 5838 c0 -37 -111 -46 -124 -11 -5 13 -9 13 -22 3 -12 -11 -12
-15 -2 -21 9 -6 8 -9 -7 -10 -11 -1 -26 -3 -32 -3 -7 -1 -13 -6 -13 -11 1 -6
11 -9 23 -8 49 5 86 5 96 -2 19 -11 12 -35 -9 -35 -25 0 -95 -28 -88 -35 3 -3
26 -1 52 5 55 12 81 2 90 -35 4 -14 13 -25 22 -25 8 0 13 4 10 8 -3 5 3 25 14
44 12 23 15 39 9 45 -6 6 6 18 36 34 47 25 57 53 20 55 -11 1 -32 5 -47 9 -21
5 -28 4 -28 -7z"/>
<path d="M556 3789 l-26 -20 0 -149 0 -149 26 -20 c27 -21 29 -21 1084 -21
1055 0 1057 0 1084 21 l26 20 0 149 0 149 -26 20 c-27 21 -29 21 -1084 21
-1055 0 -1057 0 -1084 -21z"/>
<path d="M3180 3803 c-35 -12 -40 -35 -40 -182 0 -80 4 -151 8 -157 22 -33 43
-34 1111 -34 l1060 0 20 26 c19 24 21 40 21 169 0 135 -1 143 -23 163 l-23 22
-1060 -1 c-582 0 -1066 -3 -1074 -6z"/>
<path d="M5782 3798 c-31 -15 -34 -35 -30 -196 3 -127 5 -143 23 -156 18 -14
152 -15 1088 -16 1054 0 1067 0 1087 20 18 18 20 33 20 168 0 112 -3 153 -14
168 -14 19 -38 19 -1083 21 -761 1 -1075 -1 -1091 -9z m1258 -128 c0 -5 8 -10
18 -10 16 -1 16 -1 0 -14 -10 -7 -18 -23 -18 -34 0 -12 8 -26 18 -32 15 -9 14
-10 -8 -8 -19 2 -26 10 -30 33 -4 25 -10 30 -35 33 -29 2 -29 2 -11 -13 11 -8
23 -15 28 -15 17 0 7 -30 -13 -40 -16 -9 -26 -8 -43 3 -18 12 -25 12 -39 2
-40 -29 -89 16 -68 61 12 27 58 33 79 12 10 -10 15 -10 21 1 6 9 20 12 41 9
21 -3 34 0 37 9 6 15 23 18 23 3z"/>
<path d="M8382 3790 c-21 -20 -22 -29 -22 -169 0 -141 1 -148 23 -169 l23 -22
1067 0 1066 0 21 22 c18 20 20 35 20 161 0 133 -7 171 -34 189 -6 4 -491 8
-1077 8 -1058 0 -1065 0 -1087 -20z"/>
<path d="M10991 3784 c-19 -24 -21 -40 -21 -169 0 -135 1 -143 23 -163 l23
-22 1065 0 1066 0 21 23 c20 22 22 33 22 164 0 127 -2 143 -21 167 l-20 26
-1069 0 -1069 0 -20 -26z"/>
<path d="M13614 3802 c-27 -18 -34 -56 -34 -189 0 -126 2 -141 20 -161 l21
-22 1068 0 1068 0 21 23 c21 22 22 33 22 170 0 138 -1 147 -22 167 -22 20 -29
20 -1087 20 -586 0 -1071 -4 -1077 -8z"/>
<path d="M16230 3803 c-35 -13 -40 -35 -40 -185 0 -135 2 -150 20 -168 20 -20
33 -20 1089 -20 l1070 0 20 26 c19 24 21 40 21 168 0 77 -4 146 -8 152 -22 33
-43 34 -1104 33 -579 0 -1060 -3 -1068 -6z"/>
<path d="M10750 3418 c0 -133 10 -128 -256 -128 -147 0 -213 -3 -209 -10 4 -6
1 -17 -5 -25 -11 -13 97 -15 859 -15 858 0 871 0 891 -20 20 -20 20 -33 20
-592 l0 -573 23 -35 22 -35 5 613 c5 593 6 614 24 628 15 10 52 14 143 14 68
0 123 3 123 8 0 4 -7 15 -14 25 -12 16 -61 17 -775 17 -893 0 -801 -15 -801
130 0 90 0 90 -25 88 -25 -2 -25 -4 -25 -90z"/>
<path d="M13384 3400 c-12 -19 -24 -48 -28 -63 -4 -17 -17 -32 -34 -39 -32
-14 -62 -38 -62 -50 0 -4 58 -8 129 -8 123 0 131 1 146 23 15 22 15 22 -39 27
-30 3 -61 11 -68 18 -7 7 -15 39 -18 70 l-5 57 -21 -35z"/>
<path d="M14640 3280 c-8 -5 -31 -16 -50 -24 l-35 -14 33 -1 c59 -2 72 -27 72
-141 0 -55 4 -100 9 -100 36 0 41 12 41 104 0 129 1 130 142 136 l113 5 -39
18 c-44 22 -260 35 -286 17z"/>
<path d="M4430 2396 l0 -685 28 -4 27 -4 -27 -2 -28 -1 0 -110 0 -110 313 1
c171 1 300 4 286 6 -22 3 -28 13 -44 65 -17 56 -17 64 -2 112 9 28 19 77 22
109 l7 57 -54 0 -55 0 -7 77 c-11 130 -9 153 13 153 11 0 22 6 24 13 3 6 6 -1
7 -18 l1 -30 10 25 c6 14 8 32 6 42 -3 9 1 22 9 29 11 9 11 15 -1 40 -8 15
-16 45 -16 66 l-2 38 -7 -35 c-4 -19 -8 -28 -9 -19 -1 19 -48 32 -54 15 -2 -6
-3 -2 -1 9 2 11 4 47 4 80 0 33 4 55 8 49 12 -19 48 -33 68 -28 11 3 28 19 38
37 17 30 19 30 27 12 6 -17 8 -17 8 -2 1 26 43 21 76 -9 16 -15 39 -26 52 -26
13 0 23 -5 23 -11 0 -8 4 -7 11 0 6 6 12 23 12 38 0 21 3 26 18 22 15 -4 19 0
19 23 0 27 21 45 48 41 6 -1 12 6 12 16 1 17 1 17 11 -1 8 -13 8 -24 0 -40 -6
-11 -15 -33 -20 -48 -9 -25 -13 -27 -36 -18 -15 6 -27 10 -28 10 -1 0 -2 -23
-2 -50 0 -34 5 -54 15 -60 22 -14 35 -7 35 19 1 28 33 50 45 30 5 -7 18 -13
29 -14 15 -1 22 6 26 27 5 19 15 30 31 34 13 3 24 9 24 13 0 4 8 7 18 8 12 1
23 -10 32 -30 23 -57 5 -187 -27 -187 -6 0 -14 -8 -16 -17 -3 -12 -5 -8 -6 9
-1 20 -5 25 -19 21 -14 -3 -21 4 -29 29 -10 31 -11 29 -12 -31 -1 -35 -3 -62
-6 -60 -2 3 -11 41 -19 85 -9 53 -15 67 -15 43 -1 -52 -21 -101 -37 -95 -8 3
-14 1 -14 -4 0 -6 5 -10 10 -10 6 0 10 -4 10 -10 0 -5 -11 -10 -24 -10 -19 0
-22 -4 -18 -25 3 -20 7 -23 18 -14 9 7 14 8 14 1 0 -5 -7 -12 -15 -16 -26 -9
-17 -27 10 -20 23 6 25 3 25 -24 0 -17 6 -33 13 -36 10 -5 10 -7 0 -12 -7 -3
-13 -12 -13 -20 0 -10 12 -14 40 -14 45 0 52 15 16 31 -20 10 -41 51 -30 62 2
2 29 0 61 -4 36 -4 63 -2 71 4 10 8 16 7 23 -4 6 -10 9 -10 9 -1 0 6 7 12 17
12 15 0 15 -2 -1 -19 -17 -19 -17 -19 6 -14 12 3 33 18 45 32 l22 26 1 -42 c0
-23 -5 -43 -12 -45 -24 -8 5 -30 33 -26 27 4 28 4 12 -14 -15 -17 -14 -18 30
-18 25 0 48 4 51 8 6 10 116 -9 116 -20 0 -4 -12 -8 -27 -8 -39 0 -22 -10 34
-20 45 -7 46 -8 11 -9 -41 -1 -63 -20 -26 -22 20 -1 21 -2 3 -6 -23 -6 -45
-33 -38 -48 2 -8 41 -12 106 -13 128 -2 189 -9 199 -25 4 -7 2 -14 -4 -16 -7
-2 -14 1 -16 8 -2 6 -11 11 -20 11 -14 0 -14 -2 -3 -9 11 -7 9 -10 -8 -16 -22
-7 -24 -12 -21 -62 1 -29 -1 -31 -32 -30 -21 1 -36 8 -40 20 -4 9 -12 17 -18
17 -16 0 -29 -42 -20 -65 4 -11 2 -29 -4 -40 -6 -11 -12 -22 -13 -24 -1 -2
-16 3 -32 10 -26 12 -31 20 -31 47 0 20 -4 31 -10 27 -5 -3 -10 -19 -10 -34 0
-15 -5 -32 -12 -39 -9 -9 -7 -12 9 -12 17 0 22 -7 25 -32 l3 -33 228 -3 c269
-3 263 -5 254 89 -3 37 -1 59 5 59 7 0 7 5 0 13 -24 29 74 73 101 45 8 -7 12
-24 11 -36 -3 -15 1 -22 12 -22 12 0 13 -6 8 -22 -12 -35 -8 -71 10 -84 9 -6
16 -19 16 -28 0 -14 14 -16 100 -16 l100 0 0 250 c0 233 -1 252 -19 271 -19
20 -19 20 -25 1 -4 -11 -15 -27 -25 -36 -17 -16 -18 -13 -25 60 -9 108 -8 154
4 154 6 0 10 7 10 15 0 8 -4 15 -10 15 -5 0 -11 17 -11 38 -1 20 -6 1 -11 -43
-5 -44 -7 -112 -4 -152 3 -49 0 -73 -7 -76 -9 -3 -8 -8 2 -20 18 -23 8 -56
-33 -102 -47 -54 -54 -40 -50 99 3 125 -2 109 -11 -36 -6 -77 -10 -96 -21 -91
-8 3 -14 0 -14 -6 0 -7 13 -17 30 -22 l29 -11 -20 -21 c-15 -17 -23 -19 -36
-11 -25 15 -34 59 -32 154 2 82 1 85 -21 88 -18 3 -21 0 -16 -13 3 -9 7 -31 7
-48 l1 -32 8 30 c7 26 8 23 8 -20 0 -36 -2 -45 -8 -30 -7 17 -9 16 -9 -10 -1
-16 -4 -47 -7 -67 -5 -31 -11 -38 -30 -38 -12 0 -29 7 -38 15 -8 8 -29 15 -46
15 l-31 0 19 28 c18 25 19 42 15 237 -2 115 -6 211 -9 214 -2 2 -4 -86 -4
-197 0 -139 -3 -202 -11 -202 -6 0 -22 -9 -36 -20 -14 -11 -38 -20 -54 -20
-30 0 -47 15 -25 23 15 6 29 47 15 47 -5 0 -9 6 -9 13 0 9 -12 11 -39 9 -21
-2 -41 1 -45 6 -3 5 -6 37 -7 71 -1 53 1 63 22 80 13 11 21 23 17 27 -4 4 -15
1 -25 -7 -15 -12 -16 -12 -10 3 3 10 9 66 13 125 3 60 10 113 15 119 5 6 19
11 32 10 12 -1 25 3 29 9 8 10 11 -7 10 -55 -1 -20 0 -21 5 -5 3 11 16 30 29
41 19 19 23 20 26 6 2 -11 7 -8 15 11 11 23 10 27 -3 27 -12 0 -13 4 -3 21 9
18 7 25 -10 42 -11 12 -24 18 -28 13 -4 -4 -1 -11 7 -16 13 -8 12 -10 -2 -10
-19 0 -24 -15 -9 -24 5 -3 7 -15 4 -26 -8 -32 -15 -16 -20 46 -4 49 -3 56 11
51 11 -5 16 -1 16 12 0 14 5 18 20 14 14 -4 20 0 20 11 0 11 -9 16 -31 16 -28
0 -30 3 -27 30 2 21 -5 37 -25 58 -18 19 -26 37 -25 55 3 37 22 28 29 -14 l6
-34 2 33 c1 28 7 35 36 48 19 8 35 17 35 20 0 3 -4 3 -8 0 -4 -2 -13 3 -19 13
-16 25 42 91 75 85 26 -5 28 9 7 50 -16 30 -21 126 -6 126 4 0 20 -9 34 -20
l26 -20 6 20 c3 11 13 20 21 20 8 0 14 6 14 14 0 8 11 13 29 12 16 -1 27 -4
24 -8 -2 -5 3 -8 13 -8 12 0 15 -6 10 -20 -3 -11 -9 -28 -12 -39 -4 -14 1 -20
19 -25 14 -3 28 -14 30 -24 3 -9 5 -4 6 13 1 22 4 26 13 17 7 -7 16 -12 20
-12 13 0 9 20 -7 36 -20 20 -19 27 7 43 15 9 23 10 26 3 2 -6 10 -8 18 -5 11
4 14 -4 14 -32 0 -21 -4 -34 -10 -30 -5 3 -10 0 -10 -8 0 -8 -9 -26 -21 -41
-26 -33 -38 -156 -15 -156 16 0 31 53 20 71 -5 9 -2 10 9 6 10 -3 17 -2 17 3
0 21 30 9 31 -12 0 -15 3 -18 6 -8 4 8 12 21 20 28 11 11 13 3 13 -52 0 -54
-3 -66 -16 -66 -12 0 -15 6 -11 21 3 11 3 28 -1 37 -5 13 -8 9 -12 -13 -4 -24
-10 -29 -28 -27 -12 2 -23 -2 -23 -7 -1 -6 -2 -17 -3 -23 -2 -16 13 -32 37
-41 12 -5 17 -1 17 12 0 10 7 21 15 25 17 6 21 -9 5 -19 -6 -4 -8 -10 -6 -14
9 -14 -40 -49 -55 -40 -8 5 -16 9 -19 9 -4 0 -5 -109 -1 -143 1 -11 44 -5 54
8 4 6 10 5 16 -4 6 -9 11 -10 15 -2 14 23 26 10 26 -28 0 -22 5 -43 10 -46 6
-4 10 5 10 19 0 14 5 26 10 26 6 0 10 22 10 49 0 44 -3 50 -22 53 -32 4 -37
38 -5 38 l24 0 1 130 c1 78 -3 130 -8 130 -13 0 -13 57 -1 65 6 3 9 35 8 70
l-2 65 -180 1 c-99 1 -256 3 -349 5 -108 2 -174 0 -182 -7 -8 -7 -14 -7 -19 1
-4 6 -76 10 -201 10 -162 0 -194 -2 -194 -14 0 -18 -17 -29 -30 -21 -8 5 -7
11 1 21 10 12 -3 14 -85 14 -54 0 -95 -4 -92 -9 7 -11 -18 -33 -27 -24 -4 3
-3 11 1 18 4 6 0 3 -9 -7 -16 -16 -17 -16 -37 3 -18 16 -36 19 -125 19 l-103
0 -18 -32 c-15 -29 -14 -18 1 20 4 9 -58 12 -291 12 l-296 0 0 -684z m460 462
c27 4 30 1 32 -24 0 -16 1 -37 0 -46 -2 -25 10 -22 32 9 11 14 14 23 8 19 -8
-5 -10 -2 -6 9 5 11 10 13 19 5 17 -14 25 -70 11 -71 -7 0 -6 -3 1 -5 19 -8 3
-34 -22 -34 -23 0 -45 -32 -27 -38 6 -2 7 -12 4 -24 -4 -18 -3 -19 17 -9 11 7
21 8 21 3 0 -20 -23 -72 -32 -72 -5 0 -6 -6 -1 -12 4 -7 8 -17 9 -23 5 -27 25
-65 34 -65 5 0 10 -17 9 -37 0 -37 0 -38 -16 -15 -21 30 -30 28 -47 -10 -8
-18 -15 -27 -15 -20 -1 10 -6 10 -21 2 -20 -10 -20 -8 -20 116 0 70 -2 125 -5
122 -3 -3 -8 -99 -11 -214 -6 -209 -7 -226 -3 -286 1 -18 -3 -34 -9 -36 -8 -2
-9 -9 -3 -20 5 -10 9 -51 10 -92 0 -69 -1 -73 -14 -50 -12 23 -19 25 -89 25
-67 0 -76 -2 -76 -18 0 -11 9 -30 20 -44 14 -18 20 -41 20 -74 0 -49 -10 -66
-32 -53 -7 4 -30 7 -53 5 -24 -1 -48 4 -60 13 -11 9 -15 16 -10 16 7 0 9 24 7
64 -4 56 -2 65 16 75 20 10 37 61 20 61 -17 0 3 63 30 91 23 25 27 38 28 89 1
56 -6 74 -21 50 -10 -16 -35 8 -35 34 0 12 -6 28 -12 35 -10 11 -10 13 0 7 8
-5 12 1 12 18 0 14 5 26 11 26 6 0 17 7 25 15 9 8 19 15 24 15 10 0 11 -10 14
-213 2 -92 6 -170 9 -174 4 -3 7 48 7 115 0 123 5 156 21 146 6 -3 7 -63 3
-150 -5 -104 -3 -144 5 -144 7 0 11 32 11 98 0 114 8 172 24 172 14 0 79 60
72 67 -3 3 -13 0 -23 -8 -15 -12 -16 -12 -10 6 5 14 -1 11 -18 -10 -30 -36
-30 -32 -5 69 23 90 24 106 5 56 -9 -24 -14 -29 -14 -15 -1 17 -3 18 -11 5 -7
-10 -9 9 -8 62 1 77 2 77 31 84 l30 6 -6 84 c-3 60 -1 90 9 110 11 20 11 30 3
40 -8 10 -8 14 0 14 6 0 11 8 11 18 0 14 -2 15 -10 2 -5 -8 -10 -10 -10 -5 0
23 41 53 48 35 1 -3 16 -4 32 -2z m871 -200 c4 -30 -1 -63 -9 -66 -5 -1 -18
-9 -28 -17 -17 -13 -15 -14 24 -10 24 2 50 9 57 15 11 9 15 7 20 -12 3 -12 5
-32 4 -43 -1 -11 -1 -29 0 -40 l2 -20 9 20 c7 17 9 16 9 -10 1 -25 5 -30 26
-31 21 -2 24 1 14 12 -6 8 -15 11 -20 8 -5 -3 -9 0 -9 5 0 9 17 13 48 10 10
-1 14 -59 3 -59 -5 0 -14 -14 -21 -31 -8 -19 -18 -28 -27 -25 -8 4 -19 6 -25
6 -7 0 -8 16 -4 45 4 25 5 45 3 45 -2 0 -12 -21 -22 -46 -15 -39 -15 -50 -4
-70 7 -13 18 -24 26 -24 18 0 17 -45 -2 -60 -13 -11 -15 -8 -15 19 0 18 -7 39
-15 47 -8 9 -15 29 -15 45 0 18 -4 28 -10 24 -5 -3 -10 -22 -10 -41 0 -24 -4
-34 -16 -34 -8 0 -22 -6 -30 -14 -11 -12 -12 -20 -2 -41 10 -22 9 -28 -3 -36
-21 -13 -33 -11 -20 5 9 11 9 15 -1 18 -10 4 -11 11 -2 36 9 24 9 32 -1 36 -8
3 -11 13 -8 25 3 12 0 28 -7 36 -22 26 -33 17 -26 -22 l5 -38 -14 30 c-16 35
-19 55 -6 55 18 0 21 50 5 75 -13 20 -14 28 -4 40 8 10 21 13 33 9 18 -6 19
-3 13 27 -3 18 -11 36 -17 39 -7 5 -6 15 2 33 8 19 17 24 35 21 12 -2 26 0 29
6 9 14 25 13 26 -2z m-1010 -738 c13 -7 19 -7 19 0 0 5 9 10 20 10 11 0 20 -6
20 -14 0 -16 -34 -31 -50 -21 -6 3 -7 -1 -4 -9 3 -9 15 -16 25 -16 11 0 19 -7
19 -16 0 -12 7 -15 29 -12 30 4 32 -7 7 -42 -10 -13 -9 -13 6 -1 22 16 108 25
108 10 0 -6 5 -7 11 -3 8 4 9 -1 4 -16 -5 -15 -4 -20 4 -16 6 4 11 2 11 -4 0
-7 -7 -10 -15 -7 -8 4 -17 2 -20 -2 -7 -12 -126 -11 -148 1 -22 11 -70 115
-63 134 3 8 1 14 -4 14 -6 0 -10 5 -10 10 0 13 6 13 31 0z m124 -221 c0 -10
13 -13 48 -12 42 3 48 1 43 -15 -9 -28 -10 -75 -2 -99 6 -18 3 -23 -9 -23 -9
0 -14 4 -11 8 3 5 -11 9 -32 10 -25 1 -43 9 -55 23 -15 18 -24 21 -62 16 -32
-5 -45 -3 -45 6 1 29 92 111 115 104 6 -2 10 -10 10 -18z"/>
<path d="M14877 3073 c-4 -3 -7 -22 -7 -41 0 -31 2 -34 25 -30 14 3 28 1 31
-3 3 -5 -1 -9 -9 -9 -8 0 -22 -9 -32 -21 -19 -20 -19 -20 9 -9 39 15 45 5 8
-14 l-30 -15 -1 -196 c-1 -155 1 -195 11 -189 10 6 11 4 1 -7 -10 -10 -13
-110 -13 -426 l0 -414 49 7 c43 6 51 4 63 -15 17 -28 28 -27 22 2 -3 12 -6 31
-8 42 -4 29 -35 85 -46 85 -6 0 -10 4 -10 10 0 5 6 9 13 7 6 -1 11 6 9 16 -2
11 4 17 15 17 16 0 16 1 1 16 -9 9 -28 17 -42 17 -15 0 -29 3 -32 8 -3 5 0 9
5 9 6 0 10 6 8 12 -1 7 9 14 21 16 21 3 23 0 17 -20 -5 -20 -4 -20 5 -5 6 9
18 17 25 17 8 0 15 5 15 11 0 6 -9 8 -20 4 -23 -7 -25 -2 -9 26 7 15 7 24 -1
33 -8 11 -4 15 21 18 22 3 33 0 37 -10 3 -9 1 -17 -5 -19 -8 -3 -7 -15 3 -38
8 -19 14 -42 13 -52 0 -11 -3 -13 -6 -5 -6 14 -39 16 -48 2 -3 -5 1 -10 9 -10
21 0 37 -33 34 -72 -3 -31 -1 -33 27 -30 28 3 29 3 11 -11 -11 -8 -27 -12 -37
-10 -16 4 -17 0 -12 -33 8 -51 15 -59 58 -62 30 -2 38 1 42 18 4 14 9 17 17
11 6 -5 28 -12 49 -16 20 -4 37 -11 37 -16 0 -5 0 -12 0 -16 0 -4 -6 -8 -13
-8 -7 0 -20 -7 -29 -15 -15 -14 -15 -16 1 -31 15 -14 19 -13 55 13 37 27 94
39 81 18 -3 -5 -15 -10 -25 -10 -11 0 -33 -12 -50 -27 -23 -21 -28 -32 -20
-43 8 -13 10 -12 10 3 0 9 7 17 15 17 8 0 15 -7 15 -15 0 -8 -4 -15 -9 -15 -5
0 -9 -15 -8 -34 l1 -34 125 0 c114 1 128 3 149 22 l24 21 18 -22 c17 -21 27
-23 120 -23 101 0 157 13 129 31 -7 4 -10 11 -7 15 4 3 14 0 22 -8 11 -12 12
-18 3 -27 -8 -8 1 -11 34 -11 33 0 51 6 64 20 10 11 13 20 7 20 -7 0 -12 -5
-12 -11 0 -5 -5 -7 -11 -4 -6 5 -4 12 7 20 11 8 15 19 10 30 -4 11 0 22 11 31
23 17 33 17 29 2 -1 -7 -1 -10 1 -5 3 4 13 7 23 7 10 0 20 3 22 8 7 16 75 60
113 72 22 7 64 26 93 41 30 15 60 25 68 22 10 -4 13 2 12 18 -2 19 2 25 24 27
14 2 33 13 41 26 8 12 33 28 54 34 24 7 45 22 53 37 7 13 18 22 23 18 6 -3 7
-1 3 6 -5 7 8 27 32 51 31 31 37 42 26 51 -9 7 -19 7 -36 -2 -13 -6 -20 -8
-16 -4 4 5 3 14 -4 22 -8 10 -7 16 6 26 14 10 15 15 3 30 -12 18 -14 18 -37
-1 -21 -17 -22 -22 -11 -35 16 -20 6 -37 -20 -37 -11 0 -30 -11 -42 -24 -13
-14 -40 -26 -64 -31 -23 -3 -42 -10 -41 -13 4 -19 -17 -42 -45 -48 -17 -3 -47
-23 -66 -44 -45 -47 -61 -52 -83 -27 -14 15 -30 20 -75 20 -33 0 -59 -5 -61
-12 -2 -6 3 -11 11 -11 8 0 17 -9 20 -20 5 -20 27 -28 27 -10 0 6 -5 10 -12
10 -9 0 -9 3 -1 11 8 8 20 6 44 -7 19 -10 40 -17 46 -16 8 2 10 -3 7 -13 -3
-8 -10 -15 -15 -15 -5 0 -9 -7 -9 -15 0 -8 -7 -15 -15 -15 -8 0 -15 5 -15 11
0 11 -60 3 -70 -10 -8 -11 -60 -31 -78 -31 -9 1 2 9 24 20 23 11 44 28 47 39
4 17 0 20 -36 19 -23 0 -43 5 -45 11 -2 6 -15 11 -28 11 -13 0 -24 5 -24 10 0
6 26 10 57 10 31 0 53 3 50 7 -4 3 -2 12 4 20 9 10 6 13 -12 14 -61 2 -122 6
-211 13 -82 7 -97 11 -101 27 -6 22 10 24 61 10 26 -8 34 -7 39 5 3 7 9 14 15
14 5 0 7 -3 5 -7 -3 -5 25 -9 61 -9 37 -1 84 -3 105 -3 42 -2 71 14 63 36 -3
8 2 13 12 13 9 1 2 7 -16 15 -18 8 -31 19 -28 23 6 10 -72 22 -142 22 -30 0
-41 3 -36 12 5 7 2 9 -9 5 -21 -8 -88 11 -107 30 -13 14 -12 15 10 9 45 -12
105 -19 98 -11 -11 12 11 35 34 35 15 0 18 -5 12 -22 -3 -13 -3 -20 1 -16 4 4
18 3 31 -2 15 -6 24 -6 24 0 0 6 -10 10 -22 10 -17 1 -9 8 27 25 28 14 52 20
53 15 2 -6 13 -10 23 -10 13 0 18 4 13 12 -5 8 -2 9 9 5 10 -3 17 -2 17 3 0 6
-28 10 -63 10 -69 0 -191 35 -181 52 4 6 -1 8 -14 4 -12 -4 -31 -2 -42 4 -16
9 -25 8 -38 -2 -11 -9 -14 -9 -8 -1 5 9 -1 11 -22 7 -24 -5 -30 -2 -35 16 -6
25 12 50 37 50 9 0 16 4 16 10 0 5 13 7 29 5 23 -2 28 0 24 11 -3 9 1 14 13
14 13 0 15 3 7 11 -6 6 -33 12 -60 13 -31 1 -47 6 -46 14 2 7 -1 12 -5 12 -5
0 -17 6 -27 14 -16 12 -13 13 26 7 24 -4 54 -13 66 -19 26 -15 89 -16 98 -2 8
13 52 13 60 -1 4 -6 -1 -17 -11 -25 -18 -15 -18 -15 6 -10 38 8 59 -9 23 -19
l-28 -7 38 -20 c33 -16 38 -23 33 -44 -5 -18 -2 -24 10 -24 15 0 15 -2 -2 -21
-19 -21 -19 -21 0 -18 10 2 24 12 30 22 9 14 7 21 -8 32 -18 13 -15 35 5 35 6
0 7 -4 4 -10 -3 -5 -2 -10 3 -10 6 0 12 7 16 15 3 8 12 15 21 15 14 0 18 10
13 27 -2 4 -12 6 -23 4 -16 -2 -17 -1 -6 13 7 9 19 16 27 16 14 0 30 38 19 48
-3 4 -10 1 -14 -7 -9 -15 -20 -13 -39 6 -7 7 -19 13 -27 13 -7 0 -15 6 -18 13
-2 6 -6 16 -8 22 -2 5 5 10 16 10 11 0 20 7 20 15 0 8 -9 15 -20 15 -11 0 -47
9 -80 19 -33 10 -72 20 -88 21 -63 6 -107 40 -67 53 7 3 10 0 6 -7 -8 -12 20
-11 42 2 9 6 9 13 1 28 -13 25 -7 32 29 36 15 1 65 16 112 33 47 18 110 39
140 48 30 9 57 19 60 23 3 3 12 9 20 13 8 3 2 4 -13 1 -16 -3 -48 -8 -70 -12
-23 -3 -50 -10 -60 -15 -10 -5 -21 -7 -24 -5 -3 3 -23 -1 -45 -9 -22 -8 -54
-14 -70 -14 -17 0 -31 -6 -35 -16 -3 -8 -11 -13 -17 -11 -7 3 -23 -1 -37 -9
-13 -7 -40 -13 -59 -13 -19 0 -29 3 -22 6 6 2 12 13 12 24 0 24 51 51 58 31 3
-10 8 -8 18 5 22 29 16 36 -25 29 -29 -4 -40 -2 -45 9 -3 8 -13 15 -21 15 -9
0 -14 4 -11 9 4 5 0 12 -6 14 -7 3 -3 6 9 6 12 1 25 -4 28 -9 4 -6 16 -8 27
-4 15 4 18 3 13 -6 -6 -9 -3 -9 14 -1 12 7 26 9 32 5 6 -3 19 2 30 12 15 14
19 14 19 2 0 -8 6 -23 14 -33 13 -18 17 -18 40 -6 14 8 26 20 26 28 0 20 17
15 38 -12 23 -29 37 -33 28 -8 -4 9 -1 20 5 24 17 10 0 31 -20 24 -20 -6 -91
21 -91 35 0 11 65 24 79 15 6 -3 11 -2 11 4 0 5 15 13 33 17 31 7 31 7 10 17
-22 10 -25 14 -27 46 -2 20 -24 25 -28 7 -3 -14 -6 -14 -30 -2 -15 8 -42 18
-60 22 l-33 7 33 9 c43 11 40 22 -10 46 -71 33 -76 33 -80 9 -2 -12 -9 -22
-17 -22 -25 0 -36 -31 -18 -50 9 -9 17 -22 16 -28 0 -9 -2 -8 -6 1 -2 6 -12
12 -21 12 -8 0 -12 -3 -9 -6 4 -4 -3 -16 -16 -26 l-22 -20 35 3 c19 2 41 -1
48 -5 7 -4 24 -5 37 -2 13 3 27 2 30 -4 3 -5 -2 -10 -12 -10 -14 0 -15 -2 -4
-9 11 -7 11 -9 0 -13 -8 -3 2 -10 21 -16 25 -7 28 -10 13 -11 -13 -1 -24 -10
-29 -23 -7 -22 -7 -22 -15 -3 -4 11 -8 15 -8 8 -1 -7 -10 -10 -22 -8 -11 2
-29 -1 -38 -7 -12 -7 -26 -8 -47 -1 -26 10 -27 11 -9 18 11 3 28 11 37 16 24
12 31 11 22 -3 -4 -7 -3 -8 5 -4 22 14 -1 28 -36 21 -24 -4 -33 -3 -28 4 3 6
-1 11 -9 11 -20 0 -21 17 -1 23 11 4 10 4 -2 3 -10 -1 -27 6 -37 16 -25 23
-36 23 -36 0 0 -10 12 -22 30 -29 17 -6 30 -19 30 -28 0 -14 -3 -15 -15 -5 -8
7 -15 9 -15 4 -1 -24 -40 43 -40 68 0 27 -3 30 -25 26 -14 -3 -25 -1 -25 3 0
15 60 14 70 -1 5 -7 70 -20 70 -13 0 2 -15 10 -32 18 l-33 14 30 1 c29 1 29 2
8 12 -27 13 -31 59 -8 78 42 35 0 59 -107 59 -80 0 -84 -1 -84 -21 1 -16 -7
-24 -31 -31 -18 -6 -33 -14 -33 -18 0 -5 -7 -9 -15 -9 -8 0 -15 -7 -15 -15 0
-19 40 -20 85 -1 18 8 48 16 67 18 30 3 33 0 36 -25 2 -15 0 -26 -5 -25 -9 3
-73 -52 -73 -63 0 -13 33 -20 41 -8 7 12 14 8 62 -35 l21 -20 -28 -7 c-15 -4
-41 -3 -58 3 -23 8 -36 8 -49 0 -17 -11 -18 -8 -16 26 2 33 0 37 -20 35 -16
-2 -21 2 -17 12 4 10 14 13 30 9 30 -8 31 10 2 31 -21 14 -24 14 -39 -6 -18
-24 -80 -29 -103 -10 -10 9 -16 9 -21 1 -5 -8 -15 -6 -32 5 -14 9 -33 15 -43
12 -10 -2 -24 -1 -31 4 -11 7 -11 9 -1 9 9 0 11 7 7 20 -5 15 -2 20 12 18 10
0 40 0 67 0 40 2 47 4 37 16 -14 17 0 29 23 20 14 -6 14 -3 -1 24 -11 20 -21
28 -27 22 -6 -6 -27 -10 -48 -10 -21 0 -38 -4 -38 -10 0 -5 -6 -10 -14 -10 -8
0 -16 -4 -18 -9 -1 -5 -12 -11 -23 -13 -26 -4 -26 22 0 44 19 17 15 17 -86 18
-58 0 -109 -3 -112 -7z m383 -203 c19 -8 43 -23 53 -35 11 -13 16 -15 15 -5
-2 9 6 15 20 16 23 1 23 1 -4 -27 -28 -29 -64 -39 -64 -18 0 7 -7 8 -17 4 -10
-4 -33 -10 -52 -14 -27 -5 -35 -11 -38 -32 -3 -24 -1 -26 23 -21 19 3 25 1 20
-7 -4 -6 -2 -11 5 -11 7 0 9 -3 6 -6 -4 -4 -13 -1 -22 6 -12 10 -15 10 -15 0
0 -7 7 -18 17 -25 13 -10 11 -11 -15 -7 -41 6 -44 -19 -4 -38 16 -7 22 -14 14
-17 -7 -3 -19 0 -27 7 -8 6 -23 9 -34 5 -12 -4 -30 0 -43 9 -18 13 -19 16 -5
16 9 0 17 5 17 11 0 5 -4 8 -8 5 -20 -12 -37 16 -38 64 -1 42 2 50 17 50 10 0
21 5 24 10 4 6 11 7 17 4 7 -5 9 -1 5 9 -3 9 -1 17 5 19 8 3 8 10 -1 25 -10
21 -9 22 31 25 24 2 48 0 53 -3 6 -3 26 -12 45 -19z m117 -587 c17 -10 22 -9
27 2 10 27 31 16 31 -15 1 -16 -3 -30 -7 -30 -4 0 -8 -5 -8 -11 0 -6 6 -9 13
-6 6 2 30 -10 52 -28 22 -18 55 -40 73 -49 17 -9 32 -21 32 -26 0 -16 -18 -11
-45 12 -24 21 -61 31 -78 21 -14 -9 41 -43 60 -37 16 5 16 4 -1 -7 -29 -18
-89 16 -83 48 3 17 1 21 -8 13 -6 -5 -15 -7 -18 -3 -4 3 -7 1 -7 -6 0 -8 -5
-7 -16 4 -9 9 -21 14 -28 12 -6 -2 -17 10 -24 27 -7 17 -9 32 -4 34 5 1 6 16
4 33 -3 22 -7 27 -13 18 -7 -11 -9 -10 -9 4 0 9 -5 17 -11 17 -5 0 -7 5 -4 11
5 7 14 4 29 -8 11 -10 31 -23 43 -30z"/>
<path d="M16400 3065 c14 -8 34 -18 45 -23 19 -9 19 -9 -3 -16 -27 -9 -29 -26
-2 -26 12 0 20 -7 20 -16 0 -13 3 -14 13 -5 16 13 27 5 27 -20 0 -11 -5 -16
-12 -14 -8 3 -14 -4 -14 -20 -1 -17 9 -33 34 -52 19 -16 45 -38 58 -50 26 -26
54 -30 54 -8 0 13 13 20 24 13 2 -2 13 6 25 16 17 16 24 17 34 7 6 -7 8 -11 2
-10 -5 2 -23 -4 -40 -14 -22 -11 -25 -16 -12 -17 10 0 15 -4 12 -10 -3 -5 -1
-10 5 -10 7 0 14 9 17 20 7 27 17 25 42 -6 26 -33 26 -44 1 -44 -11 0 -20 6
-20 14 0 8 -8 13 -17 12 -10 -2 -17 -6 -15 -9 1 -4 2 -16 2 -28 0 -11 5 -17
10 -14 12 8 13 -5 1 -24 -8 -12 -11 -8 -16 15 -14 61 -16 64 -43 64 -20 0 -23
-3 -14 -12 21 -21 13 -31 -20 -24 -31 6 -31 6 -13 -9 14 -12 16 -18 8 -21 -21
-9 -13 -27 28 -63 l39 -33 7 33 c6 30 7 31 12 11 3 -13 10 -23 14 -22 5 1 14
-6 21 -16 11 -14 15 -14 21 -4 5 9 4 15 -4 18 -9 3 -9 7 0 18 14 17 59 19 59
2 0 -15 116 -91 128 -84 4 2 8 -4 9 -14 2 -17 -22 -33 -43 -29 -5 1 -18 1 -29
0 -19 -2 -19 -3 3 -18 32 -23 27 -41 -15 -49 -20 -4 -47 -16 -59 -27 -25 -22
-84 -29 -97 -12 -5 6 -7 3 -3 -7 3 -10 2 -20 -3 -22 -12 -8 -51 23 -51 40 0 8
-5 14 -10 14 -9 0 -60 47 -60 56 0 1 12 2 26 1 15 -1 28 3 30 8 5 15 -111 134
-142 145 -19 7 -31 7 -40 -1 -8 -6 -23 -9 -34 -6 -13 3 -20 0 -20 -10 0 -8 4
-12 9 -8 5 3 12 1 16 -5 3 -5 15 -10 26 -10 11 0 18 -4 15 -9 -3 -5 2 -8 10
-7 9 0 18 -7 19 -16 2 -10 -1 -18 -6 -18 -5 0 -9 -5 -9 -11 0 -6 7 -9 15 -5 8
3 14 0 12 -7 -1 -7 6 -11 17 -9 15 3 18 -1 13 -18 -4 -17 -2 -20 14 -15 11 4
19 2 19 -4 0 -6 -4 -11 -10 -11 -21 0 -9 -27 18 -36 19 -7 -7 -9 -94 -6 -130
5 -192 -8 -244 -48 -24 -19 -24 -20 -4 -20 25 0 38 -22 22 -38 -11 -11 -3 -32
13 -32 5 0 9 7 9 16 0 16 25 13 60 -7 13 -7 13 -8 0 -9 -9 -1 -7 -5 7 -10 33
-13 63 -2 60 24 -1 13 4 21 13 21 8 0 14 -6 12 -13 -1 -8 5 -11 21 -6 33 8 61
-20 47 -47 -7 -13 -7 -19 0 -19 5 0 10 5 10 11 0 5 5 7 10 4 6 -3 17 1 26 9 8
9 25 16 37 16 12 0 29 5 37 10 12 8 10 10 -8 10 -13 0 -21 4 -18 8 11 17 -16
37 -71 54 l-58 17 77 -2 c42 -1 71 -5 65 -9 -7 -5 -3 -8 11 -8 12 0 22 -5 22
-11 0 -5 -6 -7 -12 -4 -7 4 -3 -2 9 -13 12 -11 19 -22 16 -26 -4 -3 1 -6 11
-6 11 0 15 5 10 13 -5 9 -4 9 6 0 10 -9 10 -18 2 -40 -6 -15 -9 -41 -7 -56 2
-16 1 -26 -2 -24 -2 3 -14 -4 -24 -14 -12 -12 -27 -18 -38 -14 -11 3 -21 0
-24 -9 -5 -12 -25 -14 -111 -11 -59 2 -106 0 -106 -5 0 -5 8 -11 18 -13 9 -3
-8 -6 -38 -7 -30 -2 -44 -4 -30 -7 89 -13 89 -13 92 -41 l4 -27 12 27 c7 17
22 30 39 34 15 4 33 10 38 14 6 5 31 6 58 5 27 -2 47 1 47 7 0 5 6 8 13 5 6
-2 22 4 34 15 16 15 26 17 38 10 12 -6 14 -11 6 -16 -6 -4 -11 -3 -11 3 0 6
-10 0 -23 -12 -13 -12 -22 -25 -20 -29 2 -5 -2 -8 -9 -8 -8 0 -20 -17 -27 -37
-8 -21 -20 -46 -28 -55 -15 -17 -9 -43 8 -32 5 3 7 9 4 13 -2 5 4 16 14 25 18
16 20 16 39 -8 22 -28 38 -33 45 -13 4 9 8 9 16 -3 5 -8 7 -18 5 -22 -3 -4 4
-8 15 -8 12 0 21 -7 21 -15 0 -19 21 -65 31 -65 4 0 17 11 30 24 13 13 29 21
37 18 8 -2 17 1 22 7 5 10 9 9 13 -2 4 -10 -3 -17 -24 -21 -16 -3 -40 -13 -54
-22 -21 -14 -25 -24 -25 -65 0 -27 -4 -49 -10 -49 -9 0 -15 36 -11 67 1 8 -5
10 -16 6 -16 -5 -16 -4 1 9 17 14 18 19 7 46 -16 38 -38 58 -73 67 -19 5 -28
3 -28 -5 0 -7 7 -10 16 -6 12 4 15 2 10 -9 -3 -8 4 -23 14 -33 20 -19 20 -19
-7 -31 -20 -9 -23 -15 -14 -20 10 -6 5 -13 -18 -27 -16 -10 -32 -25 -34 -33
-4 -14 -5 -14 -6 0 -1 21 -28 32 -48 20 -9 -4 -23 -7 -32 -5 -9 2 -28 -6 -43
-19 l-28 -22 77 2 c42 1 81 7 87 13 17 17 29 11 23 -10 -3 -11 -1 -23 4 -26 6
-3 -2 -17 -16 -30 -14 -13 -24 -28 -20 -33 3 -5 0 -13 -6 -17 -8 -4 1 -14 22
-25 23 -12 28 -17 14 -17 -11 1 -37 -6 -57 -16 -35 -17 -39 -17 -69 -2 -38 19
-38 19 -78 -56 -33 -61 -37 -78 -21 -78 6 0 10 7 10 15 0 8 5 15 10 15 6 0 10
8 10 17 0 9 3 13 7 9 9 -9 -27 -77 -38 -70 -5 3 -17 0 -26 -5 -13 -7 33 -10
159 -11 140 0 176 3 172 13 -3 9 6 12 36 9 22 -2 37 -8 34 -13 -3 -5 4 -9 15
-9 11 0 23 5 26 10 3 6 -3 10 -14 10 -11 0 -23 5 -26 10 -3 6 -22 10 -41 10
-19 0 -34 2 -34 5 0 10 36 40 63 53 35 15 42 15 29 -1 -7 -8 -7 -18 -2 -27 7
-12 12 -11 28 8 20 23 47 29 57 12 5 -9 -7 -14 -27 -12 -3 1 -3 -11 1 -26 6
-21 14 -27 34 -27 20 1 23 -2 15 -12 -8 -10 11 -13 101 -13 l111 0 0 573 c0
316 -4 566 -9 559 -10 -16 -21 16 -21 64 0 17 -7 37 -15 44 -8 7 -15 17 -15
22 0 10 -25 38 -34 38 -3 0 -6 -11 -6 -25 0 -30 -14 -32 -37 -5 -21 25 -43 26
-44 3 0 -11 -3 -13 -6 -5 -2 7 -14 17 -25 23 -20 11 -20 9 -13 -27 7 -39 7
-39 -14 -20 -11 10 -23 34 -27 52 -3 19 -10 34 -15 34 -5 0 -9 12 -8 28 0 26
1 26 9 5 5 -13 15 -23 22 -22 10 0 10 2 1 6 -8 3 -11 14 -7 28 5 20 2 24 -23
27 -31 4 -73 -10 -73 -24 0 -5 -5 -6 -10 -3 -6 4 -8 9 -6 13 5 9 -107 10 -114
1 -3 -3 -20 -4 -38 -2 -26 4 -30 8 -21 19 9 11 8 14 -4 14 -14 0 -16 13 -14
83 1 45 6 85 12 89 5 4 -33 8 -85 8 -88 0 -93 -1 -70 -15z"/>
<path d="M2905 3030 c-10 -11 -24 -20 -31 -20 -15 0 -31 -82 -25 -130 0 -5 10
-10 20 -10 22 0 40 -20 19 -20 -7 -1 -2 -10 11 -21 21 -17 22 -22 10 -30 -9
-5 -10 -9 -2 -9 13 0 13 -56 0 -77 -4 -6 -3 -14 1 -17 14 -8 1 -59 -17 -73
-12 -10 -13 -12 -2 -13 11 0 11 -3 0 -17 -8 -9 -13 -24 -11 -35 2 -10 -3 -18
-10 -18 -9 0 -9 -3 2 -10 13 -9 13 -10 0 -10 -12 -1 -11 -4 3 -15 18 -13 18
-14 -2 -25 -12 -6 -25 -8 -30 -5 -14 8 -125 -20 -176 -46 -51 -26 -89 -65 -81
-86 3 -7 1 -15 -3 -18 -5 -2 0 -35 10 -72 10 -38 19 -76 19 -85 0 -23 -55 -84
-102 -115 -22 -13 -43 -35 -48 -48 -5 -14 -16 -25 -24 -25 -17 0 -40 -36 -31
-50 3 -5 -3 -13 -12 -19 -10 -6 -13 -11 -7 -11 6 0 9 -21 6 -58 -4 -61 14
-117 43 -128 8 -3 11 -12 8 -19 -3 -9 8 -22 27 -34 18 -10 40 -33 51 -50 10
-17 27 -31 38 -31 10 0 33 -13 51 -30 18 -16 36 -27 41 -24 6 3 34 -2 64 -11
50 -16 57 -16 89 -1 41 19 82 21 89 4 4 -10 8 -9 16 2 8 11 6 17 -7 22 -16 6
-16 7 1 7 9 1 17 8 17 16 0 20 78 21 86 1 7 -17 44 -28 58 -17 6 4 40 14 76
21 36 6 78 19 93 27 16 8 42 15 58 15 21 1 29 6 29 20 0 10 5 18 10 18 6 0 10
-4 10 -10 0 -5 7 -10 16 -10 12 0 15 -7 12 -25 -3 -14 -1 -25 3 -25 5 0 9 13
9 29 0 17 5 33 10 36 6 3 10 16 10 28 1 19 3 18 15 -8 l13 -30 1 43 c1 23 -3
42 -9 42 -14 0 -12 27 3 36 6 4 9 4 5 -1 -7 -7 14 -35 27 -35 3 0 4 51 3 112
-3 98 -5 113 -20 116 -16 3 -18 -5 -18 -70 -1 -56 -3 -69 -11 -55 -6 10 -9 24
-6 30 4 12 -6 103 -18 155 -7 30 -25 19 -26 -16 0 -20 -5 -12 -18 28 -17 52
-19 54 -28 30 -9 -23 -11 -20 -18 30 -7 50 -9 53 -18 30 -10 -24 -10 -24 -18
15 -15 79 -15 80 4 79 14 -2 17 6 17 40 0 30 3 37 10 26 9 -13 11 -13 20 0 13
20 13 90 0 90 -5 0 -10 -7 -10 -15 0 -8 -4 -15 -10 -15 -5 0 -10 13 -10 30 0
21 -4 28 -14 24 -8 -3 -17 0 -21 5 -3 6 -11 9 -16 6 -5 -4 -9 4 -9 17 0 18 -2
20 -10 8 -5 -8 -10 -10 -10 -4 0 14 -98 54 -131 54 -34 0 -56 24 -40 44 9 11
9 15 -1 19 -11 4 -11 6 0 6 10 1 10 6 2 21 -6 11 -8 20 -4 20 3 0 1 7 -6 15
-10 12 -9 15 6 15 17 1 17 2 3 13 -19 15 -33 77 -18 77 6 0 9 7 6 15 -4 8 -2
17 3 20 5 3 7 11 4 19 -3 7 1 26 7 42 7 16 11 35 10 42 -1 6 6 12 15 12 15 0
15 3 -4 21 -28 25 -21 39 21 40 29 1 30 2 8 8 -35 9 -37 29 -4 34 27 4 27 4
-4 6 -38 1 -45 21 -9 21 32 0 43 18 14 22 -13 2 -27 13 -33 26 -8 19 -17 22
-66 22 -43 0 -60 -5 -74 -20z m130 -671 c4 -6 20 -9 36 -7 34 3 58 -23 59 -65
0 -23 3 -27 19 -22 21 6 38 -10 20 -20 -6 -4 -8 -18 -5 -31 5 -17 2 -24 -8
-24 -8 0 -17 -15 -21 -36 -6 -33 -9 -36 -34 -31 -15 3 -33 2 -40 -2 -8 -6 -3
-10 18 -14 68 -14 21 -56 -61 -57 -52 0 -58 2 -58 21 0 16 5 20 20 16 10 -3
24 1 31 9 6 8 8 14 3 14 -5 0 2 6 15 13 13 6 29 21 35 32 6 10 17 25 24 33 6
7 12 17 12 21 0 15 -73 101 -85 101 -3 0 -6 -12 -6 -27 -1 -23 -3 -20 -12 15
-5 24 -16 42 -23 42 -8 0 -14 7 -14 15 0 18 65 21 75 4z m-115 -28 c0 -5 -20
-14 -44 -20 -70 -17 -111 -80 -90 -135 3 -9 24 -26 45 -38 21 -12 39 -25 39
-30 0 -4 6 -7 13 -5 7 1 13 -10 15 -25 3 -27 2 -28 -42 -28 -46 0 -96 16 -96
32 0 4 4 8 10 8 5 0 7 7 4 15 -5 11 1 15 21 15 14 0 23 4 20 10 -3 5 -25 7
-50 3 -44 -6 -44 -6 -39 23 3 16 8 56 10 88 6 84 20 96 111 96 40 0 73 -4 73
-9z"/>
<path d="M11690 3010 c0 -29 -2 -30 -45 -30 -38 0 -45 -3 -45 -20 0 -17 7 -20
44 -20 43 0 45 -1 48 -32 2 -27 7 -33 28 -32 20 0 26 6 30 29 5 27 9 30 48 33
34 3 42 7 42 23 0 16 -7 19 -45 19 -43 0 -45 1 -45 30 0 27 -3 30 -30 30 -27
0 -30 -3 -30 -30z"/>
<path d="M10165 2683 c66 -2 123 -7 128 -12 5 -5 27 -6 49 -4 29 4 39 2 33 -7
-4 -7 1 -13 14 -17 11 -3 18 -9 15 -14 -3 -5 0 -9 6 -9 6 0 10 -8 8 -17 -3
-19 -38 -30 -103 -32 -28 -1 -35 -4 -25 -10 21 -12 130 -20 130 -9 0 11 58 10
65 -2 3 -5 30 -17 60 -26 45 -12 52 -18 42 -29 -10 -10 -17 -10 -37 0 -38 20
-273 38 -356 28 -74 -9 -127 -2 -91 12 9 4 17 17 17 28 0 16 3 18 11 10 9 -9
19 -8 42 4 29 15 30 16 12 29 -22 16 -45 18 -45 4 0 -6 -19 -8 -44 -5 l-44 4
0 -39 c0 -22 5 -43 11 -47 25 -16 112 -43 139 -43 15 0 70 -7 120 -16 115 -20
229 -15 258 11 26 23 34 15 18 -19 -10 -23 -9 -29 3 -37 8 -5 20 -7 27 -4 7 3
10 0 7 -5 -3 -5 0 -16 7 -24 11 -12 18 -9 46 15 18 16 39 29 47 29 8 0 15 9
15 20 0 11 -5 20 -11 20 -8 0 -7 5 2 16 12 14 15 13 32 -10 17 -23 25 -26 82
-26 35 0 75 -4 88 -9 52 -20 72 -64 43 -94 -8 -8 -14 -22 -13 -32 1 -10 -5
-20 -13 -23 -13 -4 -13 -3 -2 11 11 13 10 17 -7 26 -28 15 -39 14 -67 -8 l-24
-19 41 -7 c30 -5 38 -10 30 -18 -15 -15 -14 -40 1 -31 6 4 16 0 22 -8 6 -8 34
-17 61 -21 l50 -5 0 36 c0 42 -11 55 -37 41 -14 -7 -16 -6 -12 6 4 8 -1 17 -9
21 -20 7 -6 48 26 75 18 16 32 19 72 14 28 -3 73 -7 100 -10 l50 -4 -3 40 c-4
34 -7 39 -29 39 -17 0 -22 -4 -16 -12 15 -25 11 -38 -13 -38 -35 0 -43 26 -45
145 -1 81 2 110 12 116 8 5 -230 8 -551 7 -311 -1 -511 -4 -445 -5z"/>
<path d="M6852 2611 l-22 -39 0 -1013 1 -1014 24 -18 25 -18 0 1071 c0 588 -1
1070 -3 1070 -2 0 -13 -17 -25 -39z"/>
<path d="M13293 2619 c-6 -6 -9 -18 -6 -25 4 -10 -3 -14 -23 -13 -25 0 -26 2
-9 8 16 7 13 9 -18 15 -62 12 -81 -23 -55 -96 12 -33 37 -42 94 -33 24 3 45 5
47 3 9 -7 37 27 33 39 -3 7 1 13 9 13 22 0 18 36 -7 70 -23 31 -46 38 -65 19z"/>
<path d="M13707 2600 c3 -11 -6 -39 -21 -65 -15 -25 -25 -49 -22 -54 9 -14
-52 -51 -86 -52 -18 0 -51 -4 -73 -8 l-40 -8 40 -11 c51 -14 202 -32 280 -32
33 0 67 -4 75 -10 9 -6 17 -5 22 3 5 8 38 12 92 13 101 0 136 17 136 64 0 19
-5 30 -14 30 -7 0 -69 -11 -136 -25 -67 -14 -125 -24 -127 -21 -2 2 4 7 14 10
22 7 215 46 228 46 5 0 4 5 -3 12 -6 6 -33 11 -61 12 -48 1 -63 16 -15 16 36
0 29 20 -8 21 -60 2 -83 -3 -104 -22 -36 -33 -66 -25 -93 26 -13 24 -21 50
-18 57 3 9 -7 14 -33 16 -34 2 -38 0 -33 -18z"/>
<path d="M17299 2601 c-21 -17 -22 -22 -11 -45 13 -30 81 -65 124 -66 51 0 78
59 41 92 -18 16 -84 38 -114 38 -9 0 -27 -8 -40 -19z"/>
<path d="M7916 2515 c-13 -14 -26 -25 -29 -25 -4 0 -30 -15 -59 -33 -29 -19
-75 -42 -103 -53 -27 -10 -43 -20 -34 -22 24 -4 117 35 163 69 49 35 56 36 86
4 29 -31 80 -34 98 -5 7 11 20 20 30 20 32 0 33 13 5 42 -23 24 -35 28 -80 28
-45 0 -58 -4 -77 -25z"/>
<path d="M8292 2518 c-19 -19 -14 -53 13 -78 21 -19 31 -22 69 -17 28 4 63 1
93 -8 26 -8 60 -15 75 -15 52 0 38 -18 -17 -22 -30 -1 -55 1 -55 6 0 4 -11 1
-25 -8 -31 -20 -42 -20 -70 2 -21 17 -40 18 -187 15 -191 -4 -205 -6 -213 -34
l-7 -21 -22 21 c-20 18 -34 21 -100 20 -42 -1 -78 -5 -81 -9 -2 -4 -44 -6 -92
-4 -57 2 -95 -2 -108 -10 -32 -20 -57 -27 -49 -14 4 6 3 8 -3 5 -6 -4 -39 -7
-74 -8 -64 -1 -94 -13 -83 -31 4 -6 -19 -8 -60 -5 -44 4 -68 1 -75 -7 -8 -9
-1 -12 25 -13 20 -1 41 -6 47 -12 8 -8 -6 -11 -52 -11 -42 0 -60 3 -55 11 3 6
-8 3 -25 -5 -45 -24 -54 -46 -39 -101 7 -25 16 -45 20 -45 4 0 8 -9 8 -20 0
-28 74 -97 113 -106 18 -3 46 -14 62 -22 19 -10 56 -16 102 -17 43 0 72 -4 70
-10 -3 -12 43 -22 112 -24 42 -1 52 2 48 13 -3 8 4 21 17 29 21 14 25 13 62
-21 37 -34 44 -37 114 -40 53 -2 71 0 60 7 -12 8 -10 15 15 41 16 16 34 30 39
30 18 -1 77 -60 71 -70 -4 -6 24 -10 72 -10 55 0 74 3 63 10 -13 9 -12 12 5
25 11 9 28 22 38 30 9 8 20 15 23 15 10 0 69 -64 67 -72 -2 -4 31 -8 72 -8 41
0 74 4 73 8 -2 5 13 24 32 43 l35 34 30 -28 c17 -15 29 -32 27 -37 -1 -6 26
-10 62 -10 57 0 67 3 96 30 33 31 55 35 55 9 1 -29 227 1 282 37 12 8 31 14
43 14 11 0 20 4 20 10 0 5 16 25 35 44 30 31 35 42 35 84 0 35 -6 57 -21 76
-20 25 -24 26 -95 22 -41 -3 -72 -2 -70 3 9 14 65 21 91 11 32 -12 33 4 3 24
-18 11 -35 12 -73 6 -76 -13 -83 -12 -55 9 l25 19 -28 7 c-15 4 -53 4 -83 0
-33 -4 -54 -3 -51 2 3 5 -6 16 -21 25 -21 12 -39 14 -87 7 -33 -4 -61 -6 -63
-4 -2 2 8 10 23 18 l27 14 -38 15 c-22 9 -68 19 -104 23 -36 3 -84 14 -108 22
-37 14 -43 19 -38 39 9 35 -17 54 -78 54 -28 0 -57 -5 -64 -12z m-279 -280
c-2 -5 2 -8 11 -8 8 0 16 5 18 12 3 8 45 13 129 15 68 2 151 8 183 12 54 7 63
6 95 -16 20 -14 35 -29 34 -33 -3 -11 80 -22 102 -14 17 7 18 8 1 14 -16 5
-15 7 6 17 20 9 28 7 51 -13 23 -20 25 -24 10 -24 -17 -1 -17 -1 0 -11 10 -6
51 -12 91 -13 40 -1 80 -6 87 -13 8 -6 30 -18 49 -26 l35 -15 -60 -3 c-85 -3
-89 -3 -100 -10 -5 -4 -52 -7 -104 -8 -94 -2 -95 -2 -137 -39 -23 -20 -43 -46
-43 -58 -2 -44 -71 -77 -106 -49 -20 15 -20 15 -1 30 10 8 23 16 28 17 5 2 11
18 13 36 4 31 3 32 -36 32 -22 0 -49 -5 -60 -10 -10 -6 -19 -7 -19 -2 0 17 27
32 71 42 l44 9 -49 -4 c-44 -5 -61 -12 -111 -49 -9 -6 -19 -4 -30 7 -9 9 -19
17 -23 17 -3 0 -1 -5 6 -12 7 -7 12 -21 12 -31 0 -17 -3 -16 -22 8 -20 26 -24
27 -95 23 -75 -3 -82 -1 -61 20 26 26 -11 11 -40 -16 -30 -28 -30 -28 -53 -9
-20 16 -24 17 -27 4 -2 -12 -15 -14 -60 -10 -31 3 -67 6 -79 6 -27 2 -29 12
-5 26 9 6 12 11 7 11 -6 0 -21 -7 -33 -16 -22 -15 -25 -15 -48 7 -22 21 -33
23 -92 20 -37 -1 -68 -4 -70 -6 -5 -5 -52 37 -52 46 0 4 24 10 53 14 87 11
220 35 225 40 3 3 -10 5 -29 5 l-34 0 34 21 c36 22 61 19 61 -6 0 -11 10 -15
43 -14 41 1 114 15 90 18 -6 0 0 13 15 29 l27 27 26 -20 c15 -11 24 -23 22
-27z"/>
<path d="M4020 2330 l-4 -185 -6 125 c-3 69 -7 110 -8 93 -2 -31 -4 -33 -42
-33 -22 0 -40 -4 -40 -10 0 -5 -7 -10 -15 -10 -8 0 -15 -5 -15 -10 0 -6 -11
-16 -25 -22 -14 -6 -25 -19 -25 -30 0 -10 -4 -18 -10 -18 -6 0 -10 -46 -10
-119 0 -86 -3 -121 -12 -124 -8 -2 -9 -8 -4 -13 5 -5 11 -4 13 4 7 20 23 14
23 -9 0 -15 4 -19 16 -15 9 3 18 6 20 6 13 0 1 20 -16 25 -16 5 -20 15 -20 46
0 37 2 39 30 39 34 0 37 -5 15 -26 -17 -17 -20 -54 -5 -54 5 0 13 -18 16 -40
4 -22 10 -40 15 -40 5 0 9 -4 9 -10 0 -5 -7 -10 -15 -10 -8 0 -22 -11 -31 -25
-9 -14 -25 -25 -35 -25 -11 0 -19 -7 -19 -15 0 -26 -57 -115 -73 -115 -3 0 -8
28 -11 63 -16 149 -24 167 -43 97 -5 -22 -7 -40 -4 -40 3 0 6 -27 7 -60 1 -33
-3 -60 -7 -60 -5 0 -12 0 -16 0 -5 0 -9 26 -10 58 -1 69 -7 95 -19 99 -6 2
-10 -40 -10 -108 1 -78 -3 -113 -11 -116 -6 -2 -13 8 -16 24 -3 20 -4 16 -6
-14 -1 -38 -4 -43 -25 -43 -36 0 -56 -10 -56 -29 -1 -22 -45 -71 -65 -71 -8 0
-15 -7 -15 -15 0 -13 41 -15 310 -15 l310 0 -1 323 c-1 177 -5 365 -9 417 l-8
95 2 -97 c1 -53 -2 -94 -6 -92 -4 3 -9 -7 -9 -23 l-1 -28 -7 30 c-6 28 -7 28
-13 8 -5 -18 -13 -23 -37 -23 -22 0 -31 5 -31 16 0 14 -9 16 -50 12 l-50 -5 0
58 0 59 40 0 c30 0 40 -4 40 -16 0 -37 94 -90 106 -60 2 6 3 90 1 186 l-3 175
-4 -185z"/>
<path d="M11326 2503 c-3 -3 -6 -17 -6 -30 0 -14 -4 -21 -10 -18 -5 3 -10 -1
-10 -9 0 -9 -6 -15 -12 -13 -24 4 -20 -41 4 -54 30 -16 47 -39 48 -65 0 -23
39 -55 89 -72 56 -20 61 -17 61 33 0 33 -4 45 -15 45 -19 0 -19 16 0 24 8 3
12 12 9 21 -5 12 -9 13 -20 4 -8 -7 -16 -10 -17 -8 -2 2 -13 18 -25 36 -20 28
-26 31 -60 27 -30 -4 -34 -3 -20 6 10 6 40 14 67 17 43 5 50 3 61 -17 6 -12
14 -19 17 -17 2 3 -3 19 -12 37 -15 29 -19 31 -63 27 -37 -3 -50 0 -63 14 -9
10 -19 16 -23 12z"/>
<path d="M13551 2278 c3 -21 -30 -88 -44 -89 -6 0 -1 -6 13 -12 29 -14 80 -63
80 -77 0 -6 5 -10 10 -10 16 0 70 29 70 38 0 4 -21 14 -47 22 l-48 14 45 5
c33 5 40 8 26 14 -11 4 -16 13 -12 23 5 13 0 15 -30 12 -36 -4 -36 -4 -15 13
12 10 27 20 34 22 8 3 6 10 -8 21 -24 19 -77 21 -74 4z"/>
<path d="M10459 2264 c-10 -14 -27 -20 -61 -20 -26 -1 -68 -9 -93 -19 -50 -18
-80 -17 -170 9 -27 8 -57 16 -65 17 -12 3 -15 -11 -15 -81 l0 -85 68 -5 c60
-4 69 -8 80 -30 11 -21 22 -26 72 -32 34 -5 74 -4 95 2 49 14 98 12 102 -2 10
-30 214 -3 272 35 14 10 26 26 26 37 0 11 1 20 3 20 14 0 114 -34 121 -41 13
-12 29 -11 21 1 -4 6 -22 17 -41 25 -44 18 -64 58 -41 83 15 16 13 19 -24 50
-31 26 -42 31 -58 23 -10 -6 -22 -7 -27 -3 -5 4 -2 -1 5 -11 10 -12 17 -14 21
-7 4 7 13 2 23 -14 22 -32 21 -36 -3 -36 -11 0 -20 -3 -20 -8 0 -4 -21 -7 -47
-7 -27 -1 -72 -4 -100 -9 l-53 -9 0 28 c0 26 2 27 45 23 38 -3 45 0 55 20 6
15 7 21 0 17 -5 -3 -10 -1 -10 5 0 6 -8 10 -17 8 -10 -2 -18 -10 -18 -18 0
-10 -13 -14 -43 -14 -39 -1 -43 1 -53 33 -7 22 -14 29 -19 21 -6 -10 -9 -9
-12 1 -3 9 -8 7 -19 -7z m-9 -44 c0 -5 16 -12 35 -16 41 -7 53 -36 36 -85 -6
-17 -8 -35 -5 -40 7 -12 -19 -7 -28 6 -4 5 -1 16 5 24 10 12 7 13 -17 9 -34
-7 -84 8 -107 31 -21 22 -3 57 36 69 40 13 45 14 45 2z"/>
<path d="M14293 2209 c13 -8 15 -14 7 -29 -8 -15 -17 -18 -43 -13 -46 7 -140
-49 -135 -81 2 -17 9 -21 35 -20 22 1 31 -2 26 -9 -19 -31 -61 -70 -95 -89
-45 -26 -47 -35 -11 -44 37 -10 330 3 351 15 14 9 11 13 -25 27 -40 16 -43 20
-43 54 0 43 -25 121 -42 131 -9 6 -8 11 1 23 18 22 6 46 -21 46 -21 -1 -21 -2
-5 -11z"/>
<path d="M13003 2173 c-17 -9 -34 -27 -38 -40 -14 -59 -99 -85 -154 -47 -18
13 -36 15 -84 10 -57 -6 -62 -4 -82 19 -16 21 -25 25 -52 19 -18 -4 -30 -11
-27 -18 3 -8 -18 -16 -59 -23 -35 -6 -76 -19 -91 -28 -35 -23 -35 -66 0 -94
24 -19 40 -21 159 -21 73 0 147 5 166 11 43 15 89 57 89 82 0 18 5 19 68 13
142 -14 308 -18 292 -7 -8 6 -25 11 -37 11 -24 0 -75 48 -70 65 4 11 24 12 82
1 l40 -7 -50 30 c-64 37 -111 44 -152 24z"/>
<path d="M9463 1886 l-23 -24 0 -615 c0 -537 2 -616 15 -621 20 -7 20 -76 0
-102 -11 -15 -14 -55 -15 -186 0 -104 4 -169 10 -173 6 -4 17 -21 24 -38 13
-28 14 27 15 430 1 285 -3 472 -9 488 -7 18 -7 40 0 68 7 26 10 184 8 419 l-3
377 -22 -23z"/>
<path d="M1840 1750 c-1 -29 -3 -31 -10 -15 -5 13 -9 -27 -9 -107 -1 -84 3
-128 10 -128 5 0 7 -4 4 -10 -4 -7 129 -10 392 -9 324 0 393 3 370 13 -15 7
-25 15 -21 19 3 3 -15 4 -40 1 -35 -4 -46 -2 -44 8 2 8 -7 11 -29 10 -23 -3
-34 2 -42 16 -7 13 -17 18 -30 15 -11 -3 -30 2 -43 11 -12 9 -28 16 -35 16 -7
0 -24 12 -39 27 -17 17 -29 23 -31 16 -5 -15 -63 35 -63 54 0 7 -9 13 -20 13
-11 0 -20 -7 -20 -15 0 -11 -12 -15 -50 -15 -40 0 -51 -4 -60 -21 -13 -24 -34
-21 -107 12 -36 16 -43 24 -43 48 0 16 -9 39 -20 52 l-19 24 -1 -35z"/>
<path d="M5467 1644 c-4 -4 -4 -18 0 -32 3 -15 1 -27 -7 -32 -7 -4 -16 -29
-20 -55 l-7 -47 71 6 c39 4 91 10 116 12 25 3 51 6 58 6 6 1 12 7 12 14 0 7
-6 15 -12 17 -10 4 -10 8 1 15 17 12 6 19 -50 27 -30 4 -49 3 -53 -4 -4 -6
-15 -11 -24 -11 -12 0 -9 5 10 17 24 15 42 55 30 68 -3 3 -14 5 -24 5 -14 0
-18 -8 -18 -36 0 -33 -2 -35 -27 -32 -23 2 -29 8 -31 36 -3 31 -11 39 -25 26z"/>
<path d="M14690 1200 c-7 -16 -16 -30 -21 -30 -5 0 -9 -253 -9 -580 l0 -580
25 0 25 0 0 610 c0 336 -2 610 -4 610 -2 0 -9 -13 -16 -30z"/>
<path d="M12068 1086 c-17 -12 -18 -50 -18 -545 l0 -531 25 0 25 0 0 545 c0
300 -3 545 -7 545 -5 0 -16 -7 -25 -14z"/>
<path d="M4220 757 c0 -81 3 -107 15 -117 19 -16 19 -63 0 -115 -11 -30 -14
-97 -15 -277 l0 -238 25 0 25 0 0 403 0 402 -25 24 -25 23 0 -105z"/>
<path d="M18274 442 c-23 -16 -44 -58 -44 -89 0 -32 16 -55 50 -73 25 -14 174
-40 227 -40 84 0 127 79 69 125 -15 12 -55 36 -89 53 -52 27 -73 32 -132 32
-38 0 -75 -4 -81 -8z"/>
<path d="M1856 59 c-65 -51 -112 -49 1084 -49 980 0 1110 2 1110 15 0 8 -9 24
-20 35 -20 20 -33 20 -1084 20 -1061 0 -1063 0 -1090 -21z"/>
<path d="M4460 60 c-11 -11 -20 -27 -20 -35 0 -13 130 -15 1110 -15 1188 0
1137 -2 1090 48 l-21 22 -1069 0 c-1057 0 -1070 0 -1090 -20z"/>
<path d="M7070 60 c-11 -11 -20 -27 -20 -35 0 -13 130 -15 1110 -15 980 0
1110 2 1110 15 0 8 -9 24 -20 35 -20 20 -33 20 -1090 20 -1057 0 -1070 0
-1090 -20z"/>
<path d="M9680 58 c-47 -50 -98 -48 1090 -48 980 0 1110 2 1110 15 0 8 -9 24
-20 35 -20 20 -33 20 -1090 20 l-1069 0 -21 -22z"/>
<path d="M12290 60 c-11 -11 -20 -27 -20 -35 0 -13 130 -15 1110 -15 1196 0
1149 -2 1084 49 -27 21 -29 21 -1090 21 -1051 0 -1064 0 -1084 -20z"/>
<path d="M14902 57 c-12 -13 -22 -29 -22 -35 0 -9 261 -12 1110 -12 1188 0
1137 -2 1090 48 l-21 22 -1068 0 -1068 0 -21 -23z"/>
</g>
</svg>
