<?xml version="1.0" encoding="UTF-8" standalone="no"?><!DOCTYPE svg PUBLIC "-//W3C//DTD SVG 1.1//EN" "http://www.w3.org/Graphics/SVG/1.1/DTD/svg11.dtd"><svg width="100%" height="100%" viewBox="0 0 3625 2084" version="1.1" xmlns="http://www.w3.org/2000/svg" xmlns:xlink="http://www.w3.org/1999/xlink" xml:space="preserve" xmlns:serif="http://www.serif.com/" style="fill-rule:evenodd;clip-rule:evenodd;stroke-linejoin:round;stroke-miterlimit:2;"><rect x="0" y="-0" width="3625" height="2083.33" style="fill:none;"/><g><path d="M775.486,1125.75c18.923,-9.054 37.756,51.187 37.756,51.187c32.164,42.498 77.108,-14.042 72.715,49.489c-7.691,111.164 127.957,34.956 65.374,151.015c-62.582,116.063 55.256,65.627 16.369,159.209c-38.891,93.584 11.514,205.198 -46.999,159.335c0,-0 -51.526,-112.992 -104.663,-147.951c-53.134,-34.953 31.836,-76.431 15.21,-123.914c-24.149,-68.963 -82.327,-66.253 -40.38,-140.364c41.951,-74.108 -79.702,-127.246 -15.382,-158.006Z" style="fill:url(#_Linear1);"/><path d="M939.229,1653.46c-25.367,-17.835 -55.048,-142.151 -56.82,-216.188c-0.912,-37.93 -12.121,-53.729 -22.012,-67.671c-9.455,-13.323 -17.619,-24.834 -12.862,-51.261c9.091,-50.495 -14.809,-72.299 -15.054,-72.511l2.769,-3.153c1.061,0.93 25.951,23.412 16.414,76.412c-4.445,24.685 2.881,35.015 12.154,48.086c9.735,13.718 21.849,30.787 22.787,69.994c1.895,79.465 32.246,196.834 55.036,212.86l-2.412,3.432Z" style="fill:#fff;fill-rule:nonzero;"/><path d="M1071.25,1425.26c-4.653,2.542 -8.554,6.618 -13.063,11.343c-11.272,11.804 -25.299,26.494 -60.84,26.662c-17.697,0.081 -27.611,2.393 -32.138,7.478c-4.955,5.566 -3.871,15.211 -2.375,28.557c0.562,5.037 1.203,10.748 1.594,16.957c2.404,38.184 -19.478,64.861 -20.412,65.977c-12.728,15.155 -27.142,45.324 -21.115,62.557c2.341,6.697 7.698,10.937 15.918,12.597c28.691,5.8 36.613,-12.147 49.735,-41.888c2.405,-5.45 4.896,-11.09 7.721,-17.061c15.2,-32.093 29.383,-37.655 50.852,-46.076c5.149,-2.025 10.99,-4.318 17.363,-7.181c27.127,-12.195 22.232,-28.936 17.054,-46.656c-0.745,-2.539 -1.482,-5.067 -2.126,-7.568c-3.265,-12.754 3.175,-19.329 11.328,-27.645c5.867,-5.986 12.512,-12.765 17.768,-23.751c2.755,-5.759 5.022,-13.584 0.209,-18.148c-6.34,-6.008 -22.452,-4.356 -37.473,3.846Zm-122.532,237.403c-3.276,0 -6.831,-0.372 -10.729,-1.161c-9.776,-1.973 -16.183,-7.133 -19.049,-15.327c-6.839,-19.555 9.001,-51.321 21.863,-66.632c0.213,-0.257 21.733,-26.558 19.44,-63.014c-0.387,-6.113 -1.02,-11.771 -1.578,-16.76c-1.62,-14.429 -2.788,-24.852 3.41,-31.814c5.461,-6.142 16.004,-8.797 35.25,-8.886c33.761,-0.16 47.103,-14.131 57.832,-25.363c4.553,-4.772 8.856,-9.277 14.083,-12.128c16.823,-9.184 34.64,-10.532 42.368,-3.209c3.671,3.477 6.772,10.293 0.689,23.002c-5.555,11.611 -12.762,18.971 -18.554,24.875c-7.792,7.948 -12.94,13.205 -10.256,23.669c0.629,2.461 1.351,4.94 2.081,7.431c5.204,17.798 11.101,37.971 -19.358,51.663c-6.467,2.904 -12.356,5.22 -17.553,7.256c-21.264,8.346 -34.1,13.383 -48.588,43.969c-2.804,5.922 -5.283,11.536 -7.677,16.96c-11.424,25.892 -20.069,45.469 -43.674,45.469Z" style="fill:url(#_Linear2);"/><path d="M938.447,1686.89l-4.188,-0.22c0.205,-3.934 5.487,-96.704 42.74,-123.857c40.864,-29.786 53.749,-61.793 59.884,-83.281c7.233,-25.318 44.032,-32.086 45.595,-32.361l0.73,4.128c-0.358,0.067 -35.783,6.593 -42.29,29.384c-6.306,22.079 -19.537,54.973 -61.45,85.521c-35.653,25.984 -40.972,119.74 -41.021,120.686Z" style="fill:url(#_Linear3);"/><path d="M1023.61,1219.37c-26.472,-9.076 -20.973,41.947 -32.16,79.707c-11.187,37.751 -124.45,16.465 -76.907,111.007c47.542,94.541 -60.125,31.616 -27.965,114.115c32.157,82.502 2.792,170.734 37.752,148.29c34.96,-22.44 19.641,-126.33 55.996,-138.674c36.356,-12.345 42.29,-26.744 6.292,-60.304c-35.995,-33.56 94.325,-66.875 62.161,-134.639c-32.16,-67.764 5.421,-109.015 -25.169,-119.502Z" style="fill:url(#_Linear4);"/><path d="M940.55,1668.53c-3.328,-14.124 -31.762,-138.413 -5.234,-153.438c23.39,-13.242 22.809,-64.745 19.161,-113.379c-3.227,-43.053 52.066,-63.174 54.422,-64.011l1.404,3.957c-0.548,0.194 -54.627,19.89 -51.642,59.742c3.749,49.943 4.151,102.943 -21.275,117.339c-20.147,11.41 -1.601,111.301 7.248,148.826l-4.084,0.964Z" style="fill:#fff;fill-rule:nonzero;"/><path d="M1000.74,1624.28l-37.8,143.402l-84.472,-0l-37.8,-143.402l160.072,0Z" style="fill:url(#_Linear5);"/><path d="M1000.74,1624.28c0,0 -83.213,15.624 -83.213,143.402l-39.059,-0l-37.8,-143.402l160.072,0Z" style="fill:url(#_Linear6);"/><path d="M2625.45,1075.95l-201.32,-0l0,-3.596l197.724,-0l-0,-162.421l3.596,-0l-0,166.017Z" style="fill:#78c2ff;fill-rule:nonzero;"/><path d="M2497.84,780.824l89.84,0l0,-89.836l-89.84,0l0,89.836Zm93.053,3.209l-96.254,0l-0,-96.254l96.254,0l-0,96.254Z" style="fill:#6aafe8;fill-rule:nonzero;"/><path d="M2613.35,719.865l213.895,0l-0,-17.113l-213.895,-0l-0,17.113Zm217.1,3.205l-220.313,0l0,-23.527l220.313,-0l-0,23.527Z" style="fill:#6aafe8;fill-rule:nonzero;"/><path d="M2497.84,829.286l329.407,0l-0,-17.113l-329.407,-0l0,17.113Zm332.612,3.209l-335.813,0l-0,-23.531l335.813,-0l-0,23.531Z" style="fill:#6aafe8;fill-rule:nonzero;"/><path d="M2497.84,874.472l207.489,0l-0,-17.113l-207.489,0l0,17.113Zm210.694,3.206l-213.895,-0l-0,-23.528l213.895,0l-0,23.528Z" style="fill:#6aafe8;fill-rule:nonzero;"/><path d="M2613.35,764.746l142.773,-0l-0,-17.11l-142.773,0l-0,17.11Zm145.981,3.209l-149.194,-0l0,-23.528l149.194,0l0,23.528Z" style="fill:#6aafe8;fill-rule:nonzero;"/><path d="M2459.61,925.641l405.867,-0l-0,-285.821l-405.867,-0l-0,285.821Zm409.076,3.205l-412.281,-0l-0,-292.235l412.281,-0l-0,292.235Z" style="fill:#6aafe8;fill-rule:nonzero;"/><path d="M2623.65,889.545c-5.298,0 -9.609,4.308 -9.609,9.609c0,5.297 4.311,9.604 9.609,9.604c5.297,0 9.604,-4.307 9.604,-9.604c0,-5.301 -4.307,-9.609 -9.604,-9.609Zm-0,22.809c-7.278,0 -13.205,-5.922 -13.205,-13.2c0,-7.282 5.927,-13.205 13.205,-13.205c7.278,0 13.2,5.923 13.2,13.205c0,7.278 -5.922,13.2 -13.2,13.2Z" style="fill:#78c2ff;fill-rule:nonzero;"/><path d="M1007.32,824.793l231.831,-0c-4.515,-22.634 -24.845,-39.453 -48.13,-39.453c-5.287,-0 -10.484,0.837 -15.461,2.49l-1.266,0.421l-0.77,-1.091c-12.862,-18.252 -33.839,-29.149 -56.112,-29.149c-26.1,0 -49.59,14.493 -61.302,37.819l-0.644,1.285l-1.396,-0.347c-2.993,-0.737 -6.087,-1.113 -9.195,-1.113c-17.772,0 -33.229,12.125 -37.555,29.138Zm236.075,3.596l-240.505,-0l0.417,-2.141c3.865,-19.812 21.343,-34.189 41.568,-34.189c2.919,0 5.83,0.302 8.666,0.901c12.531,-23.814 36.874,-38.545 63.871,-38.545c23.002,0 44.687,11.042 58.278,29.603c4.959,-1.508 10.108,-2.271 15.331,-2.271c26.174,0 48.063,18.744 52.05,44.568l0.324,2.074Z" style="fill:#6aafe8;fill-rule:nonzero;"/><path d="M2191.74,1606.87l-746.442,0l-53.387,199.529l853.216,0l-53.387,-199.529Z" style="fill:url(#_Linear7);"/><path d="M1451.18,1659.86l48.841,0c2.04,0 3.578,1.582 3.198,3.295l-4.728,21.245c-0.294,1.314 -1.638,2.263 -3.201,2.263l-49.676,0c-2.085,0 -3.633,-1.649 -3.175,-3.384l5.561,-21.245c0.335,-1.273 1.657,-2.174 3.18,-2.174Z" style="fill:#fff;fill-rule:nonzero;"/><path d="M1522.41,1659.86l36.926,0l-4.914,26.803l-37.625,0l5.613,-26.803Z" style="fill:#fff;fill-rule:nonzero;"/><path d="M1577.8,1659.86l36.921,0l-3.864,26.803l-37.629,0.034l4.572,-26.837Z" style="fill:#fff;fill-rule:nonzero;"/><path d="M1633.18,1659.86l36.922,0l-2.807,26.803l-37.625,0l3.51,-26.803Z" style="fill:#fff;fill-rule:nonzero;"/><path d="M1688.56,1659.86l36.925,0l-1.757,26.803l-37.625,0l2.457,-26.803Z" style="fill:#fff;fill-rule:nonzero;"/><path d="M1743.94,1659.86l36.926,0l-0.704,26.803l-37.625,0.034l1.403,-26.837Z" style="fill:#fff;fill-rule:nonzero;"/><path d="M2187.14,1659.86l-55.382,0l5.964,26.803l56.436,0l-7.018,-26.803Z" style="fill:#fff;fill-rule:nonzero;"/><path d="M2113.3,1659.86l-36.925,0l4.914,26.803l37.625,0l-5.614,-26.803Z" style="fill:#fff;fill-rule:nonzero;"/><path d="M2057.91,1659.86l-36.918,0l3.86,26.803l37.626,0.034l-4.568,-26.837Z" style="fill:#fff;fill-rule:nonzero;"/><path d="M2002.53,1659.86l-36.925,0l2.807,26.803l37.625,0l-3.507,-26.803Z" style="fill:#fff;fill-rule:nonzero;"/><path d="M1947.14,1659.86l-36.922,0l1.753,26.803l37.622,0l-2.453,-26.803Z" style="fill:#fff;fill-rule:nonzero;"/><path d="M1891.76,1659.86l-36.922,0l0.7,26.803l37.629,0.034l-1.407,-26.837Z" style="fill:#fff;fill-rule:nonzero;"/><path d="M1799.33,1659.86l36.922,0l0.614,26.803l-37.536,0l0,-26.803Z" style="fill:#fff;fill-rule:nonzero;"/><path d="M1434.93,1706.64l77.153,-0l-4.393,27.648l-78.616,0l5.856,-27.648Z" style="fill:#fff;fill-rule:nonzero;"/><path d="M2199.19,1706.64l-95.368,-0l5.432,27.648l97.177,0l-7.241,-27.648Z" style="fill:#fff;fill-rule:nonzero;"/><path d="M2084.74,1706.64l-38.146,-0l4.344,27.648l38.872,0l-5.07,-27.648Z" style="fill:#fff;fill-rule:nonzero;"/><path d="M2027.53,1706.64l-38.154,-0l3.261,27.648l38.873,0l-3.98,-27.648Z" style="fill:#fff;fill-rule:nonzero;"/><path d="M1970.3,1706.64l-38.15,-0l2.174,27.648l38.872,0l-2.896,-27.648Z" style="fill:#fff;fill-rule:nonzero;"/><path d="M1913.08,1706.64l-38.146,-0l1.087,27.648l38.872,0l-1.813,-27.648Z" style="fill:#fff;fill-rule:nonzero;"/><path d="M1423.41,1755.92l78.877,-0l-5.756,27.462l-80.313,0l7.192,-27.462Z" style="fill:#fff;fill-rule:nonzero;"/><path d="M1522,1755.92l39.438,-0l-4.676,27.462l-40.156,0l5.394,-27.462Z" style="fill:#fff;fill-rule:nonzero;"/><path d="M1581.16,1755.92l295.761,-0l1.102,27.462l-301.181,0l4.318,-27.462Z" style="fill:#fff;fill-rule:nonzero;"/><path d="M1896.67,1755.92l39.438,-0l2.159,27.462l-40.157,0l-1.44,-27.462Z" style="fill:#fff;fill-rule:nonzero;"/><path d="M1955.83,1755.92l39.438,-0l3.239,27.462l-40.16,0l-2.517,-27.462Z" style="fill:#fff;fill-rule:nonzero;"/><path d="M2014.98,1755.92l39.439,-0l4.314,27.462l-40.153,0l-3.6,-27.462Z" style="fill:#fff;fill-rule:nonzero;"/><path d="M2074.14,1755.92l39.438,-0l5.398,27.462l-40.16,0l-4.676,-27.462Z" style="fill:#fff;fill-rule:nonzero;"/><path d="M2133.3,1755.92l78.873,-0l7.196,27.462l-80.318,0l-5.751,-27.462Z" style="fill:#fff;fill-rule:nonzero;"/><path d="M1855.94,1706.64l-37.838,-0l0,27.648l38.564,0l-0.726,-27.648Z" style="fill:#fff;fill-rule:nonzero;"/><path d="M1798.72,1706.64l-38.146,-0l-1.087,27.648l38.868,0l0.365,-27.648Z" style="fill:#fff;fill-rule:nonzero;"/><path d="M1741.5,1706.64l-38.147,-0l-2.174,27.648l38.873,0l1.448,-27.648Z" style="fill:#fff;fill-rule:nonzero;"/><path d="M1684.27,1706.64l-38.146,-0l-3.261,27.648l38.872,0l2.535,-27.648Z" style="fill:#fff;fill-rule:nonzero;"/><path d="M1627.05,1706.64l-38.147,-0l-4.344,27.648l38.872,0l3.619,-27.648Z" style="fill:#fff;fill-rule:nonzero;"/><path d="M1569.84,1706.64l-38.15,-0l-5.432,27.648l38.873,0l4.709,-27.648Z" style="fill:#fff;fill-rule:nonzero;"/><path d="M1452.98,1643.02l6.269,-23.93l17.929,0l-5.852,23.93l-18.346,-0Z" style="fill:#fff;fill-rule:nonzero;"/><path d="M1495.11,1619.09l35.85,0l-5.011,23.93l-36.482,-0l5.643,-23.93Z" style="fill:#fff;fill-rule:nonzero;"/><path d="M1548.88,1619.09l35.861,0l-4.077,23.93l-36.486,-0l4.702,-23.93Z" style="fill:#fff;fill-rule:nonzero;"/><path d="M1602.66,1619.09l35.854,0l-3.131,23.93l-36.483,-0l3.76,-23.93Z" style="fill:#fff;fill-rule:nonzero;"/><path d="M1656.45,1619.09l35.857,0l-2.196,23.93l-36.483,-0l2.822,-23.93Z" style="fill:#fff;fill-rule:nonzero;"/><path d="M1710.23,1619.09l35.853,0l-1.254,23.93l-36.479,-0l1.88,-23.93Z" style="fill:#fff;fill-rule:nonzero;"/><path d="M1764.01,1619.09l35.857,0l-0.313,23.93l-36.482,-0l0.938,-23.93Z" style="fill:#fff;fill-rule:nonzero;"/><path d="M1817.79,1619.09l35.854,0l0.625,23.93l-36.479,-0l0,-23.93Z" style="fill:#fff;fill-rule:nonzero;"/><path d="M1871.57,1619.09l35.861,0l1.564,23.93l-36.479,-0l-0.946,-23.93Z" style="fill:#fff;fill-rule:nonzero;"/><path d="M1925.35,1619.09l35.857,0l2.509,23.93l-36.482,-0l-1.884,-23.93Z" style="fill:#fff;fill-rule:nonzero;"/><path d="M1979.13,1619.09l35.853,0l3.447,23.93l-36.475,-0l-2.825,-23.93Z" style="fill:#fff;fill-rule:nonzero;"/><path d="M2032.92,1619.09l35.854,0l4.385,23.93l-36.479,-0l-3.76,-23.93Z" style="fill:#fff;fill-rule:nonzero;"/><path d="M2086.7,1619.09l35.857,0l5.328,23.93l-36.479,-0l-4.706,-23.93Z" style="fill:#fff;fill-rule:nonzero;"/><path d="M2140.48,1619.09l35.853,0l6.273,23.93l-36.486,-0l-5.64,-23.93Z" style="fill:#fff;fill-rule:nonzero;"/><rect x="1391.91" y="1806.4" width="853.216" height="11.775" style="fill:url(#_Linear8);"/><rect x="1762.36" y="1184.28" width="117.425" height="356.653" style="fill:#518afa;fill-rule:nonzero;"/><path d="M1349.79,1356.09l942.575,-0c19.708,-0 35.69,-15.978 35.69,-35.69l-0,-643.911c-0,-19.711 -15.982,-35.689 -35.69,-35.689l-942.575,-0c-19.711,-0 -35.689,15.978 -35.689,35.689l-0,643.911c-0,19.712 15.978,35.69 35.689,35.69Z" style="fill:url(#_Linear9);"/><rect x="1349.94" y="675.829" width="940.472" height="550.24" style="fill:url(#_Linear10);"/><path d="M1788.37,1295.28c0,18.066 14.642,32.711 32.708,32.711c18.062,0 32.707,-14.645 32.707,-32.711c0,-18.063 -14.645,-32.704 -32.707,-32.704c-18.066,0 -32.708,14.641 -32.708,32.704Z" style="fill:#696969;fill-rule:nonzero;"/><rect x="1556.94" y="1527.47" width="528.273" height="26.923" style="fill:url(#_Linear11);"/><path d="M2060.56,274.664c-1.079,11.433 -4.672,83.876 71.193,123.132c75.861,-39.256 72.269,-111.699 71.193,-123.132c-47.122,-0.29 -66.29,-13.416 -71.193,-17.578c-4.903,4.162 -24.075,17.288 -71.193,17.578Zm71.193,127.175l-0.819,-0.421c-85.347,-43.57 -73.884,-127.96 -73.762,-128.805l0.231,-1.537l1.549,-0c54.262,-0 71.316,-17.49 71.483,-17.665l1.325,-1.407l1.311,1.411c0.16,0.171 17.217,17.661 71.476,17.661l1.552,-0l0.231,1.537c0.126,0.845 11.585,85.235 -73.765,128.805l-0.812,0.421Z" style="fill:#6aafe8;fill-rule:nonzero;"/><rect x="1403.99" y="717.959" width="105.33" height="10.785" style="fill:#e0e0e0;fill-rule:nonzero;"/><rect x="1538.8" y="799.17" width="76.051" height="10.785" style="fill:#e0e0e0;fill-rule:nonzero;"/><rect x="1626.7" y="799.17" width="50.465" height="10.785" style="fill:#1487e3;fill-rule:nonzero;"/><rect x="1729.8" y="1125.2" width="50.465" height="10.788" style="fill:#1487e3;fill-rule:nonzero;"/><rect x="1405.19" y="1003.39" width="50.465" height="10.781" style="fill:#1487e3;fill-rule:nonzero;"/><rect x="1687.14" y="799.17" width="121.844" height="10.785" style="fill:#e0e0e0;fill-rule:nonzero;"/><rect x="1405.19" y="962.488" width="78.296" height="10.781" style="fill:#e0e0e0;fill-rule:nonzero;"/><rect x="1615.57" y="1044" width="78.296" height="10.785" style="fill:#e0e0e0;fill-rule:nonzero;"/><rect x="1908.02" y="1125.2" width="78.296" height="10.788" style="fill:#e0e0e0;fill-rule:nonzero;"/><rect x="1514.33" y="1044" width="47.796" height="10.785" style="fill:#e0e0e0;fill-rule:nonzero;"/><rect x="1405.19" y="1044" width="94.698" height="10.785" style="fill:#1487e3;fill-rule:nonzero;"/><rect x="1405.19" y="1084.6" width="52.229" height="10.788" style="fill:#e0e0e0;fill-rule:nonzero;"/><rect x="1529.82" y="717.959" width="74.774" height="10.785" style="fill:#78c2ff;fill-rule:nonzero;"/><rect x="1529.82" y="839.773" width="74.774" height="10.788" style="fill:#1487e3;fill-rule:nonzero;"/><rect x="1492.43" y="880.38" width="31.948" height="10.785" style="fill:#e0e0e0;fill-rule:nonzero;"/><rect x="1460.48" y="921.583" width="71.759" height="10.785" style="fill:#78c2ff;fill-rule:nonzero;"/><rect x="1543.08" y="921.583" width="99.072" height="10.785" style="fill:#1487e3;fill-rule:nonzero;"/><rect x="1856.82" y="1084.6" width="99.065" height="10.788" style="fill:#1487e3;fill-rule:nonzero;"/><rect x="1405.19" y="880.678" width="74.774" height="10.785" style="fill:#1487e3;fill-rule:nonzero;"/><rect x="1405.19" y="921.583" width="44.367" height="10.785" style="fill:#1487e3;fill-rule:nonzero;"/><rect x="1539.44" y="880.678" width="41.858" height="10.785" style="fill:#ff8761;fill-rule:nonzero;"/><rect x="1406.44" y="1125.2" width="41.858" height="10.788" style="fill:#ff8761;fill-rule:nonzero;"/><rect x="1404.89" y="799.17" width="74.774" height="10.785" style="fill:#78c2ff;fill-rule:nonzero;"/><rect x="1471.02" y="1003.39" width="74.774" height="10.781" style="fill:#78c2ff;fill-rule:nonzero;"/><rect x="1471.93" y="1084.6" width="74.774" height="10.788" style="fill:#78c2ff;fill-rule:nonzero;"/><rect x="1604.77" y="1084.6" width="74.774" height="10.788" style="fill:#78c2ff;fill-rule:nonzero;"/><rect x="1404.89" y="839.773" width="106.588" height="10.788" style="fill:#78c2ff;fill-rule:nonzero;"/><rect x="1904.38" y="717.959" width="74.774" height="10.785" style="fill:#78c2ff;fill-rule:nonzero;"/><rect x="1638" y="1125.2" width="74.778" height="10.788" style="fill:#78c2ff;fill-rule:nonzero;"/><rect x="2002.41" y="717.959" width="50.055" height="10.785" style="fill:#78c2ff;fill-rule:nonzero;"/><rect x="2171.76" y="758.566" width="50.052" height="10.781" style="fill:#78c2ff;fill-rule:nonzero;"/><rect x="1624.72" y="717.959" width="95.267" height="10.785" style="fill:#1487e3;fill-rule:nonzero;"/><rect x="2002.41" y="1125.2" width="95.267" height="10.788" style="fill:#1487e3;fill-rule:nonzero;"/><rect x="1464.1" y="1125.2" width="95.264" height="10.788" style="fill:#1487e3;fill-rule:nonzero;"/><rect x="1995.9" y="758.566" width="95.264" height="10.781" style="fill:#1487e3;fill-rule:nonzero;"/><rect x="1879.07" y="799.17" width="95.264" height="10.785" style="fill:#1487e3;fill-rule:nonzero;"/><rect x="1796.29" y="1125.2" width="95.264" height="10.788" style="fill:#1487e3;fill-rule:nonzero;"/><rect x="1781.63" y="1044" width="95.267" height="10.785" style="fill:#1487e3;fill-rule:nonzero;"/><rect x="1577.09" y="1044" width="20.538" height="10.785" style="fill:#ff8761;fill-rule:nonzero;"/><path d="M2100.9,839.829l-100.695,-9.906l1.054,-10.736l100.698,9.906l-1.057,10.736Z" style="fill:#78c2ff;fill-rule:nonzero;"/><rect x="1790.44" y="717.959" width="95.264" height="10.785" style="fill:#ff8761;fill-rule:nonzero;"/><path d="M1804.53,889.657l-147.549,-65.791l4.408,-9.843l147.545,65.788l-4.404,9.846Z" style="fill:#1487e3;fill-rule:nonzero;"/><rect x="1638" y="1003.99" width="55.863" height="10.781" style="fill:#ff8761;fill-rule:nonzero;"/><rect x="1737.6" y="717.959" width="34.867" height="10.785" style="fill:#e0e0e0;fill-rule:nonzero;"/><rect x="1624.72" y="839.773" width="34.874" height="10.788" style="fill:#e0e0e0;fill-rule:nonzero;"/><rect x="2114.14" y="758.566" width="34.87" height="10.781" style="fill:#e0e0e0;fill-rule:nonzero;"/><rect x="1403.99" y="758.566" width="54.552" height="10.781" style="fill:#1487e3;fill-rule:nonzero;"/><rect x="1549.55" y="962.789" width="43.072" height="10.781" style="fill:#1487e3;fill-rule:nonzero;"/><rect x="1471.93" y="758.566" width="17.616" height="10.781" style="fill:#1487e3;fill-rule:nonzero;"/><rect x="1833.55" y="758.566" width="145.595" height="10.781" style="fill:#e0e0e0;fill-rule:nonzero;"/><rect x="1693.86" y="1084.6" width="145.591" height="10.788" style="fill:#e0e0e0;fill-rule:nonzero;"/><rect x="1502.49" y="758.566" width="17.977" height="10.781" style="fill:#ff8761;fill-rule:nonzero;"/><rect x="1772.47" y="758.566" width="47.639" height="10.781" style="fill:#1487e3;fill-rule:nonzero;"/><rect x="1820.11" y="799.17" width="47.632" height="10.785" style="fill:#ff8761;fill-rule:nonzero;"/><rect x="1713.78" y="1044" width="47.632" height="10.785" style="fill:#ff8761;fill-rule:nonzero;"/><rect x="1575.17" y="1125.2" width="47.636" height="10.788" style="fill:#ff8761;fill-rule:nonzero;"/><rect x="1658.51" y="758.566" width="101.347" height="10.781" style="fill:#1487e3;fill-rule:nonzero;"/><rect x="1894.33" y="1044" width="101.35" height="10.785" style="fill:#1487e3;fill-rule:nonzero;"/><rect x="1564.18" y="1003.99" width="59.209" height="10.781" style="fill:#1487e3;fill-rule:nonzero;"/><rect x="1560.37" y="1084.6" width="29.606" height="10.788" style="fill:#1487e3;fill-rule:nonzero;"/><rect x="1609.26" y="758.566" width="34.87" height="10.781" style="fill:#78c2ff;fill-rule:nonzero;"/><rect x="1968.88" y="1084.6" width="34.867" height="10.788" style="fill:#ff8761;fill-rule:nonzero;"/><rect x="1491.89" y="799.17" width="34.867" height="10.785" style="fill:#ff8761;fill-rule:nonzero;"/><rect x="1498.84" y="962.789" width="34.87" height="10.781" style="fill:#ff8761;fill-rule:nonzero;"/><rect x="1535.21" y="758.566" width="60.754" height="10.781" style="fill:#1487e3;fill-rule:nonzero;"/><path d="M1403.99,1006.34l-264.631,0l0,-194.44l3.596,0l0,190.848l261.035,-0l0,3.592Z" style="fill:#78c2ff;fill-rule:nonzero;"/><path d="M1940.06,804.56l-3.592,-0l-0,-257.35l193.487,0l-0,-168.616l3.596,0l-0,172.212l-193.491,0l0,253.754Z" style="fill:#78c2ff;fill-rule:nonzero;"/><path d="M1390.64,1167.28c-0.011,-0.008 -0.026,-0.011 -0.045,-0.008c0.194,0.09 0.22,0.097 0.045,0.008Z" style="fill:#323657;fill-rule:nonzero;"/><path d="M2250.72,446.351l-30.85,0l0,-3.592l27.258,-0l-0,-27.228l3.592,0l0,30.82Z" style="fill:#6aafe8;fill-rule:nonzero;"/><path d="M2043.29,446.351l-30.846,0l-0,-30.82l3.592,0l-0,27.228l27.254,-0l-0,3.592Z" style="fill:#6aafe8;fill-rule:nonzero;"/><path d="M2016.05,238.938l-3.596,-0l-0,-30.85l30.824,-0l-0,3.596l-27.228,-0l-0,27.254Z" style="fill:#6aafe8;fill-rule:nonzero;"/><path d="M2250.72,238.926l-3.592,0l-0,-27.227l-27.258,-0l0,-3.597l30.85,0l0,30.824Z" style="fill:#6aafe8;fill-rule:nonzero;"/><rect x="2247.13" y="284.987" width="3.593" height="84.483" style="fill:#6aafe8;fill-rule:nonzero;"/><rect x="2012.44" y="284.987" width="3.592" height="84.483" style="fill:#6aafe8;fill-rule:nonzero;"/><path d="M1141.16,790.89c-5.297,0 -9.608,4.307 -9.608,9.605c-0,5.301 4.311,9.608 9.608,9.608c5.297,0 9.605,-4.307 9.605,-9.608c-0,-5.298 -4.308,-9.605 -9.605,-9.605Zm0,22.809c-7.282,0 -13.204,-5.923 -13.204,-13.204c-0,-7.278 5.922,-13.205 13.204,-13.205c7.278,0 13.201,5.927 13.201,13.205c-0,7.281 -5.923,13.204 -13.201,13.204Z" style="fill:#78c2ff;fill-rule:nonzero;"/><path d="M2131.76,357.584c-5.301,-0 -9.608,4.307 -9.608,9.608c-0,5.297 4.307,9.604 9.608,9.604c5.294,0 9.605,-4.307 9.605,-9.604c-0,-5.301 -4.311,-9.608 -9.605,-9.608Zm-0,22.809c-7.282,-0 -13.204,-5.923 -13.204,-13.201c-0,-7.282 5.922,-13.205 13.204,-13.205c7.278,0 13.197,5.923 13.197,13.205c-0,7.278 -5.919,13.201 -13.197,13.201Z" style="fill:#78c2ff;fill-rule:nonzero;"/><path d="M1146.8,312.971l83.441,-0l-0,-83.441l-83.441,0l0,83.441Zm87.033,3.596l-90.629,-0l0,-90.633l90.629,0l0,90.633Z" style="fill:#a1d4ff;fill-rule:nonzero;"/><rect x="1186.72" y="250.638" width="3.592" height="42.241" style="fill:#a1d4ff;fill-rule:nonzero;"/><rect x="1167.39" y="269.962" width="42.241" height="3.592" style="fill:#a1d4ff;fill-rule:nonzero;"/><path d="M2488.97,422.291l122.349,0l0,-85.286l-122.349,-0l-0,85.286Zm125.946,3.596l-129.543,0l0,-92.475l129.543,0l-0,92.475Z" style="fill:#a1d4ff;fill-rule:nonzero;"/><path d="M2550.14,389.424l-64.116,-52.825l2.286,-2.777l61.83,50.945l61.834,-50.945l2.282,2.777l-64.116,52.825Z" style="fill:#a1d4ff;fill-rule:nonzero;"/><path d="M2611.81,425.329l-46.5,-49.02l2.613,-2.476l46.496,49.02l-2.609,2.476Z" style="fill:#a1d4ff;fill-rule:nonzero;"/><path d="M2488.47,425.329l-2.606,-2.476l46.492,-49.02l2.606,2.476l-46.492,49.02Z" style="fill:#a1d4ff;fill-rule:nonzero;"/><path d="M1031.67,1039.79c-2.49,-0 -4.94,1.165 -6.492,3.343c-1.232,1.727 -1.716,3.838 -1.363,5.93c0.354,2.096 1.501,3.931 3.232,5.163l0.003,0c1.728,1.229 3.842,1.716 5.931,1.363c2.095,-0.354 3.931,-1.5 5.159,-3.232c2.547,-3.577 1.709,-8.551 -1.869,-11.093c-1.392,-0.998 -3.004,-1.474 -4.601,-1.474Zm-0.033,18.609c-2.193,0 -4.33,-0.681 -6.154,-1.976l0.004,-0c-4.788,-3.403 -5.912,-10.07 -2.506,-14.854c3.407,-4.787 10.07,-5.908 14.854,-2.502c4.787,3.403 5.908,10.07 2.505,14.854c-1.649,2.315 -4.106,3.853 -6.909,4.326c-0.599,0.1 -1.199,0.152 -1.794,0.152Zm-6.668,4.479l0.79,0.301c1.433,0.551 2.933,0.898 4.47,1.028l0.842,0.074l1.154,3.019l5.305,-0.897l0.104,-3.231l0.774,-0.343c1.407,-0.625 2.714,-1.448 3.883,-2.434l0.648,-0.54l2.948,1.318l3.12,-4.386l-2.212,-2.356l0.302,-0.789c0.547,-1.43 0.893,-2.934 1.024,-4.464l0.074,-0.845l3.019,-1.158l-0.893,-5.301l-3.235,-0.104l-0.339,-0.77c-0.629,-1.408 -1.448,-2.718 -2.431,-3.887l-0.543,-0.644l1.314,-2.952l-4.386,-3.116l-2.352,2.208l-0.79,-0.306c-1.433,-0.543 -2.933,-0.889 -4.467,-1.02l-0.841,-0.078l-1.158,-3.015l-5.305,0.893l-0.104,3.228l-0.771,0.35c-1.407,0.625 -2.713,1.444 -3.882,2.427l-0.648,0.547l-2.952,-1.318l-3.12,4.386l2.212,2.356l-0.302,0.786c-0.547,1.433 -0.893,2.933 -1.024,4.467l-0.07,0.841l-3.023,1.158l0.897,5.308l3.227,0.097l0.347,0.771c0.629,1.411 1.444,2.721 2.431,3.886l0.543,0.644l-1.318,2.952l4.386,3.12l2.352,-2.211Zm5.529,7.445l-1.348,-3.521c-1.21,-0.161 -2.397,-0.432 -3.548,-0.816l-2.751,2.584l-7.978,-5.681l1.534,-3.447c-0.737,-0.957 -1.381,-1.992 -1.928,-3.083l-3.771,-0.119l-1.631,-9.664l3.526,-1.344c0.156,-1.206 0.428,-2.397 0.811,-3.544l-2.576,-2.751l5.677,-7.981l3.444,1.537c0.964,-0.741 1.991,-1.385 3.082,-1.928l0.123,-3.771l9.66,-1.631l1.348,3.526c1.206,0.16 2.394,0.428 3.548,0.807l2.747,-2.576l7.981,5.677l-1.533,3.444c0.733,0.964 1.384,1.995 1.928,3.086l3.767,0.119l1.631,9.657l-3.526,1.355c-0.156,1.206 -0.428,2.39 -0.811,3.544l2.58,2.747l-5.677,7.985l-3.448,-1.537c-0.96,0.741 -1.991,1.385 -3.082,1.928l-0.119,3.771l-9.66,1.627Z" style="fill:#a1d4ff;fill-rule:nonzero;"/><path d="M957.533,1011.31c-1.098,0 -2.203,0.089 -3.305,0.276c-5.182,0.871 -9.713,3.711 -12.758,7.988c-3.045,4.282 -4.24,9.49 -3.369,14.672c0.871,5.174 3.711,9.708 7.989,12.754c8.838,6.283 21.137,4.21 27.425,-4.624c3.045,-4.277 4.24,-9.482 3.369,-14.664c-0.871,-5.182 -3.712,-9.709 -7.989,-12.757c-3.365,-2.394 -7.311,-3.645 -11.362,-3.645Zm-0.07,42.919c-4.665,-0 -9.374,-1.396 -13.458,-4.303c-5.059,-3.6 -8.417,-8.957 -9.452,-15.085c-1.031,-6.127 0.384,-12.288 3.987,-17.348c7.438,-10.449 21.99,-12.906 32.44,-5.465c10.449,7.435 12.899,21.983 5.465,32.436c-4.531,6.366 -11.704,9.765 -18.982,9.765Zm-15.096,13.186l1.05,0.398c3.41,1.31 6.999,2.133 10.658,2.446l1.128,0.097l2.755,7.203l14.358,-2.423l0.246,-7.706l1.031,-0.458c3.354,-1.497 6.474,-3.447 9.27,-5.8l0.86,-0.726l7.035,3.146l8.444,-11.872l-5.272,-5.618l0.402,-1.049c1.307,-3.41 2.13,-6.999 2.442,-10.662l0.097,-1.121l7.204,-2.755l-2.42,-14.362l-7.71,-0.242l-0.458,-1.031c-1.493,-3.358 -3.447,-6.477 -5.8,-9.273l-0.726,-0.86l3.142,-7.036l-11.868,-8.443l-5.617,5.275l-1.05,-0.402c-3.41,-1.31 -6.999,-2.133 -10.662,-2.446l-1.12,-0.097l-2.759,-7.203l-14.358,2.423l-0.246,7.71l-1.027,0.454c-3.358,1.497 -6.478,3.447 -9.274,5.804l-0.86,0.722l-7.039,-3.142l-8.443,11.868l5.275,5.614l-0.402,1.057c-1.311,3.41 -2.13,6.999 -2.442,10.658l-0.101,1.121l-7.2,2.755l2.42,14.358l7.71,0.249l0.458,1.028c1.496,3.358 3.447,6.477 5.8,9.273l0.726,0.86l-3.142,7.032l11.864,8.447l5.621,-5.271Zm13.286,14.18l-3.011,-7.867c-3.228,-0.361 -6.396,-1.087 -9.448,-2.166l-6.132,5.759l-16.662,-11.853l3.432,-7.688c-2.018,-2.527 -3.741,-5.282 -5.141,-8.212l-8.417,-0.264l-3.399,-20.17l7.866,-3.008c0.361,-3.227 1.087,-6.395 2.163,-9.444l-5.759,-6.135l11.857,-16.663l7.683,3.436c2.528,-2.021 5.283,-3.741 8.216,-5.145l0.268,-8.413l20.166,-3.402l3.008,7.866c3.228,0.364 6.396,1.087 9.445,2.166l6.135,-5.759l16.662,11.853l-3.428,7.688c2.014,2.524 3.737,5.286 5.141,8.212l8.413,0.268l3.399,20.166l-7.866,3.008c-0.361,3.231 -1.087,6.392 -2.163,9.448l5.759,6.131l-11.857,16.663l-7.683,-3.432c-2.528,2.017 -5.287,3.741 -8.213,5.144l-0.271,8.414l-20.163,3.399Z" style="fill:#a1d4ff;fill-rule:nonzero;"/><path d="M1724.91,481.836c-31.84,-0 -57.746,-25.906 -57.746,-57.747c-0,-31.836 25.906,-57.742 57.746,-57.742c31.841,-0 57.747,25.906 57.747,57.742l-3.596,0c-0,-29.856 -24.295,-54.146 -54.151,-54.146c-29.859,-0 -54.154,24.29 -54.154,54.146c0,29.86 24.295,54.151 54.154,54.151l0,3.596Zm0,9.325c-36.985,0 -67.075,-30.087 -67.075,-67.072l3.596,0c-0,35.001 28.479,63.476 63.479,63.476c34.997,0 63.472,-28.475 63.472,-63.476c0,-34.997 -28.475,-63.471 -63.472,-63.471l0,-3.597c36.982,0 67.072,30.087 67.072,67.068c0,36.985 -30.09,67.072 -67.072,67.072Z" style="fill:#78c2ff;fill-rule:nonzero;"/><path d="M1716.69,446.31l-24.19,-24.19l2.542,-2.542l21.648,21.647l38.083,-38.079l2.542,2.538l-40.625,40.626Z" style="fill:#78c2ff;fill-rule:nonzero;"/><path d="M2279.32,1354.71c0,-0 3.276,12.865 3.723,14.801c0.446,1.94 20.62,-3.395 20.62,-3.395l-0.019,-15.736c0,0 -21.952,2.208 -24.324,4.33Z" style="fill:#5c544d;fill-rule:nonzero;"/><path d="M2282.64,1367.88c0,0 -5.647,8.577 -11.562,12.687c-5.912,4.11 -28.732,9.426 -32.068,13.383c-2.404,2.852 -5.751,13.659 30.873,8.726c26.014,-3.507 38.857,-2.621 41.191,-7.155c2.338,-4.534 -7.419,-30.805 -7.419,-30.805c0,-0 -5.565,3.03 -21.015,3.164Z" style="fill:#3c4145;fill-rule:nonzero;"/><path d="M2275.04,1720.88l-73.096,-744.789l9.214,-0.893l73.095,744.792l-9.213,0.89Z" style="fill:#f0c141;fill-rule:nonzero;"/><path d="M2424.07,1706.42l-73.095,-744.789l9.217,-0.897l73.091,744.789l-9.213,0.897Z" style="fill:#f0c141;fill-rule:nonzero;"/><path d="M2208.69,997.403l-0.897,-9.21l149.023,-14.463l0.897,9.214l-149.023,14.459Z" style="fill:#f0c141;fill-rule:nonzero;"/><path d="M2215.41,1066.7l-0.89,-9.221l149.019,-14.459l0.894,9.213l-149.023,14.467Z" style="fill:#f0c141;fill-rule:nonzero;"/><path d="M2222.14,1136l-0.894,-9.213l149.023,-14.463l0.89,9.214l-149.019,14.462Z" style="fill:#f0c141;fill-rule:nonzero;"/><path d="M2228.86,1205.29l-0.893,-9.209l149.023,-14.463l0.894,9.21l-149.024,14.462Z" style="fill:#f0c141;fill-rule:nonzero;"/><path d="M2235.59,1274.59l-0.897,-9.213l149.023,-14.463l0.89,9.214l-149.016,14.462Z" style="fill:#f0c141;fill-rule:nonzero;"/><path d="M2242.31,1343.88l-0.893,-9.214l149.02,-14.463l0.893,9.218l-149.02,14.459Z" style="fill:#f0c141;fill-rule:nonzero;"/><path d="M2249.04,1413.18l-0.894,-9.214l149.02,-14.463l0.897,9.21l-149.023,14.467Z" style="fill:#f0c141;fill-rule:nonzero;"/><path d="M2255.76,1482.47l-0.894,-9.214l149.02,-14.459l0.893,9.21l-149.019,14.463Z" style="fill:#f0c141;fill-rule:nonzero;"/><path d="M2262.49,1551.76l-0.894,-9.21l149.024,-14.462l0.889,9.213l-149.019,14.459Z" style="fill:#f0c141;fill-rule:nonzero;"/><path d="M2269.21,1621.07l-0.897,-9.214l149.019,-14.462l0.901,9.213l-149.023,14.463Z" style="fill:#f0c141;fill-rule:nonzero;"/><path d="M2275.94,1690.36l-0.893,-9.217l149.023,-14.455l0.893,9.21l-149.023,14.462Z" style="fill:#f0c141;fill-rule:nonzero;"/><path d="M2254.44,1083.83c0,-0 -14.682,54.511 -18.554,73.996c-3.369,16.979 -10.151,62.191 -11.116,72.942c-0.964,10.751 43.333,114.808 47.941,133.604l40.358,-6.481c0,-0 -42.58,-108.301 -31.472,-132.364c16.518,-35.798 18.67,-34.718 31.681,-64.198c13.01,-29.488 42.807,-30.187 50.807,-84.892c-0,-0 -98.815,-9.955 -109.645,7.393Z" style="fill:#3c4145;fill-rule:nonzero;"/><path d="M2326.2,818.993c0,-0 -26.796,-10.007 -39.155,10.39c-12.352,20.4 -11.165,61.238 2.345,66.256c13.506,5.026 33.798,2.398 40.715,-10.367c6.917,-12.762 13.156,-31.215 12.858,-43.548c-0.301,-12.33 -9.723,-19.168 -16.763,-22.731Z" style="fill:#eea886;fill-rule:nonzero;"/><path d="M2293.88,894.389c0,-0 1.083,7.024 -0.704,10.483c-1.794,3.462 33.706,3.555 33.706,3.555c-0,-0 2.881,-18.826 8.346,-34.725c5.461,-15.904 -41.348,20.687 -41.348,20.687Z" style="fill:#eea886;fill-rule:nonzero;"/><path d="M2335.23,873.702c0,-0 -2.45,4.039 -12.452,2.471c-10,-1.567 -22.203,-14.872 -26.376,-16.331c-4.173,-1.463 -4.214,-3.916 -4.214,-3.916l-2.617,3.819l-4.43,0.279c0,0 4.043,-11.901 -2.058,-16.752c-6.106,-4.854 6.332,-38.522 38.403,-27.313c-0,-0 24.633,6.79 23.736,20.799c-0.897,14.008 -4.482,29.964 -9.992,36.944Z" style="fill:#3a3f47;fill-rule:nonzero;"/><path d="M2292.85,850.833c0.558,-2.353 6.537,-9.065 8.823,-1.876c2.289,7.188 -3.459,16.86 -6.66,16.033c-3.202,-0.83 -3.585,-8.201 -2.163,-14.157Z" style="fill:#eea886;fill-rule:nonzero;"/><path d="M2395.06,996.848c-0.294,3.515 -4.307,7.319 -7.043,9.199c-1.753,1.203 -3.857,1.929 -6.109,2.007l-1.593,0.052l-0.004,-0l-27.846,0.949c0,0 -20.702,-66.908 18.134,-92.427c1.198,0.119 27.16,47.971 24.461,80.22Z" style="fill:#518afa;fill-rule:nonzero;"/><path d="M2311.08,1395.52c-2.337,4.534 -15.177,3.652 -41.195,7.152c-7.11,0.956 -12.713,1.325 -17.109,1.261l-1.516,-15.65c7.61,-2.647 16.458,-5.375 19.824,-7.717c5.915,-4.11 11.562,-12.687 11.562,-12.687c15.45,-0.13 21.019,-3.164 21.019,-3.164c-0,-0 9.753,26.271 7.415,30.805Z" style="fill:#3c4145;fill-rule:nonzero;"/><path d="M2293.87,902.835c0,0 21.853,-5.085 34.167,-0.927l1.862,1.72c-0,0 3.741,7.178 -10.346,7.796c-14.094,0.614 -36.244,1.641 -25.683,-8.589Z" style="fill:#ffd255;fill-rule:nonzero;"/><path d="M2379.26,1414.88c-0,-0 3.276,12.862 3.722,14.801c0.447,1.936 20.617,-3.399 20.617,-3.399l-0.019,-15.736c-0,0 -21.949,2.215 -24.32,4.334Z" style="fill:#5c544d;fill-rule:nonzero;"/><path d="M2364.08,1076.44c-0,-0 7.352,30.34 9.53,60.709c2.014,28.073 5.681,58.864 8.588,88.224c3.246,32.727 12.508,85.637 12.992,103.141c0.484,17.508 15.219,94.024 15.219,94.024l-37.693,4.33c0,-0 -24.491,-135.216 -30.276,-149.038c-5.781,-13.815 -34.469,-112.351 -35.429,-123.411c-0.968,-11.057 57.069,-77.979 57.069,-77.979Z" style="fill:#3c4145;fill-rule:nonzero;"/><path d="M2382.58,1428.05c-0,0 -5.647,8.573 -11.559,12.683c-5.915,4.114 -28.739,9.43 -32.071,13.383c-2.409,2.856 -5.752,13.659 30.872,8.726c26.014,-3.506 38.854,-2.617 41.192,-7.155c2.338,-4.534 -7.419,-30.805 -7.419,-30.805c-0,0 -5.566,3.03 -21.015,3.168Z" style="fill:#3c4145;fill-rule:nonzero;"/><path d="M2246.81,1151.92c-3.209,-0.458 7.966,-96.161 7.114,-102.162c-0.57,-4.002 -0.481,-35.105 -0.246,-54.489l-3.499,-19.622c-1.947,-1.418 -4.561,-3.06 -7.68,-4.858c-4.862,-2.807 -10.96,-6.012 -17.732,-9.396c0.786,-4.635 1.333,-8.287 1.545,-10.416c1.69,-17.236 13.264,-26.372 19.827,-30.217c2.681,-1.564 4.524,-2.253 4.524,-2.253c2.494,-1.061 4.943,-2.084 7.318,-3.06c15.811,-6.507 35.883,-12.609 35.883,-12.609l32.258,0c-0,0 24.551,4.903 39.188,10.893c1.877,0.767 3.63,1.75 5.287,2.9l-4.386,91.954c-0.003,0.023 -0.003,0.041 -0.007,0.064c-0.004,0.029 -0.011,0.067 -0.019,0.115c-1.973,12.944 -4.05,28.203 -4.743,38.898c-0.282,4.371 4.71,27.831 7.323,49.363l9.121,51.53c-0,-0 -5.272,21.353 -131.076,3.365Z" style="fill:#518afa;fill-rule:nonzero;"/><path d="M2082.13,853.681c0,-0 1.906,2.36 3.243,2.986c-0,-0 2.516,0.949 4.266,1.734c0.555,0.25 1.028,0.481 1.325,0.663c1.225,0.756 3.682,2.781 7.133,3.771c3.44,0.994 19.027,4.542 19.027,4.542l3.622,-9.244l2.598,-7.471c0,-0 -14.421,-18.684 -17.526,-19.98c-0.305,-0.123 -0.611,-0.238 -0.905,-0.32c-2.736,-0.841 -5.122,-0.32 -6.611,-0.599c-0.544,-0.101 -6.038,-0.715 -7.226,0.428c-1.656,1.593 -2.152,3.365 -1.869,4.91c0,0 -3.097,3.257 -3.32,6.276c-0,0 -2.96,2.912 -2.167,6.746c0,-0 -2.665,3.291 -1.59,5.558Z" style="fill:#eea886;fill-rule:nonzero;"/><path d="M2249.14,974.907c-3.6,-2.319 -8.261,-5.454 -24.377,-13.517c-30.008,-15.014 -67.056,-42.231 -74.1,-46.162c-10.833,-6.045 -45.052,-47.851 -45.052,-47.851c1.768,-6.295 17.988,-18.934 17.988,-18.934c0,0 51.876,49.132 63.215,55.182c9.746,5.2 57.896,10.453 71.163,11.819c2.156,0.22 3.388,0.343 3.388,0.343c13.856,18.892 -4.493,64.101 -12.225,59.12Z" style="fill:#518afa;fill-rule:nonzero;"/><path d="M1268.59,618.31c-0,-0 -9.203,-16.894 -14.437,-22.973c-5.238,-6.079 -22.63,-10.639 -20.266,-18.405c2.364,-7.769 25.668,-4.393 32.086,3.209c6.418,7.598 26.007,10.301 26.68,13.506c0.678,3.213 -6.801,20.773 -10.996,23.643c-4.2,2.874 -13.067,1.02 -13.067,1.02Z" style="fill:#6a75ba;fill-rule:nonzero;"/><path d="M1229.47,632.62c-0,-0 -14.991,-11.89 -22.21,-15.39c-7.218,-3.503 -24.994,-0.778 -25.906,-8.845c-0.916,-8.071 21.815,-14.224 30.72,-9.798c8.908,4.426 27.957,-0.871 29.852,1.806c1.895,2.676 2.006,21.762 -0.707,26.066c-2.714,4.3 -11.749,6.161 -11.749,6.161Z" style="fill:#545d94;fill-rule:nonzero;"/><path d="M1262.76,663.563c-0,-0 6.544,-44.754 6.247,-52.52c-0.082,-2.215 13.468,-1.392 12.835,2.874c-1.381,9.281 4.877,45.253 3.79,51.839c-1.087,6.589 -23.427,1.954 -22.872,-2.193Z" style="fill:#eea886;fill-rule:nonzero;"/><path d="M1242.26,676.425c0,-0 -12.266,-43.455 -15.121,-50.685c-1.273,-3.212 11.224,-8.197 12.917,-2.46c2.662,9.001 22.448,39.602 24.068,46.075c1.615,6.482 -20.732,11.098 -21.864,7.07Z" style="fill:#eea886;fill-rule:nonzero;"/><path d="M1250.77,706.623c0,0 -13.171,-44.411 -15.196,-49.139l20.769,-12.836c-0,-0 9.627,28.371 10.978,35.462c1.352,7.092 -16.551,26.513 -16.551,26.513Z" style="fill:#207cd6;fill-rule:nonzero;"/><path d="M1618.45,589.28c-0,0 -20.058,5.071 -29.599,20.241c-9.545,15.17 -17.795,32.64 -35.727,40.566c-17.929,7.925 -18.048,28.348 -16.652,31.494c1.396,3.153 56.485,65.076 68.509,67.47c12.021,2.394 34.524,0.73 32.116,-15.181c-2.409,-15.915 -25.992,-50.141 -12.754,-67.411c13.238,-17.266 16.573,-33.173 16.573,-33.173l-22.466,-44.006Z" style="fill:#2e334d;fill-rule:nonzero;"/><path d="M1614.95,663.34c0,-0 -0.588,-0.198 -1.571,-0.287c-1.135,-0.104 -2.799,-0.074 -4.69,0.562c-0.47,0.16 -1.099,0.48 -1.836,0.912c-4.765,2.811 -16.045,10.435 -17.571,10.617c-1.757,0.209 -0.272,-26.1 -0.272,-26.1c0,0 6.005,-10.628 6.765,-17.619c0.752,-6.995 19.175,31.915 19.175,31.915Z" style="fill:#eea886;fill-rule:nonzero;"/><path d="M1473.85,690.835c-0,0 -22.039,-15.452 -47.878,-10.639c-25.836,4.813 -28.624,16.89 -37.491,17.437c-8.864,0.547 -38.5,-1.984 -62.817,5.108c-24.317,7.091 -44.836,7.851 -47.624,5.826c-2.785,-2.026 15.199,-42.558 15.199,-48.127l-30.142,-7.855c-0,-0 -8.615,35.968 -11.991,44.076c-3.611,8.671 -10.554,24.995 -0.674,39.178c9.88,14.187 37.488,7.792 54.206,10.651c16.719,2.859 91.549,1.027 104.615,0.327c14.188,-0.759 56.999,-2.788 56.999,-2.788l7.598,-53.194Z" style="fill:#207cd6;fill-rule:nonzero;"/><path d="M1654.85,610.749c-0,0 1.407,21.77 -3.429,28.3c-1.932,2.61 -3.246,4.032 -4.124,4.799c-1.24,1.079 -2.201,2.438 -2.755,3.99c-1.493,4.188 -2.412,10.078 -3.604,11.336c-1.295,1.374 -5.055,-2.118 -6.418,-2.126c-1.358,-0.007 -14.622,11.44 -17.79,9.095c-3.172,-2.342 -22.519,-21.972 -20.896,-35.433c1.627,-13.457 7.565,-33.556 29.346,-33.433c21.785,0.126 28.006,8.056 29.67,13.472Z" style="fill:#eea886;fill-rule:nonzero;"/><path d="M1589.03,714.646c-0.42,0.893 -8.432,13.684 -17.206,21.107c-3.641,3.079 -7.412,5.235 -10.829,5.235c-1.046,-0 -2.063,0.018 -3.053,0.044c-10.07,0.268 -17.806,1.813 -31.397,2.491c-14.124,0.707 -48.38,-1.266 -49.397,-1.266c-1.012,0 -10.888,1.772 -10.888,1.772c-3.552,-4.303 5.822,-52.94 7.598,-53.194c1.772,-0.253 13.17,4.054 24.063,2.279c10.893,-1.772 15.196,-2.785 31.408,-21.782c16.213,-18.997 32.425,-23.81 39.264,-22.295c6.838,1.523 20.437,0 20.437,0c0,0 0.585,64.343 0,65.609Z" style="fill:#ffc955;fill-rule:nonzero;"/><path d="M1645.7,626.336c-0,-0 4.057,10.52 6.209,11.968c0,0 7.833,-8.286 2.803,-28.731c-5.033,-20.445 -24.011,-22.37 -36.266,-20.293c-15.252,2.584 -30.608,54.192 -29.815,59.217c0.789,5.026 17.88,-26.669 32.852,-24.119c14.973,2.55 15.092,3.384 24.217,1.958Z" style="fill:#2e334d;fill-rule:nonzero;"/><path d="M1613.38,663.053c-1.135,-0.104 -2.799,-0.074 -4.69,0.562c-0.47,0.16 -1.099,0.48 -1.836,0.912c-3.503,-5.461 -6.745,-18.412 -6.853,-18.852c2.334,7.092 13.379,17.378 13.379,17.378Z" style="fill:#a77860;fill-rule:nonzero;"/><path d="M1571.82,735.753c-3.641,3.079 -7.412,5.235 -10.829,5.235c-1.046,-0 -2.063,0.018 -3.053,0.044l4.147,-40.317l9.735,35.038Z" style="fill:#c29941;fill-rule:nonzero;"/><path d="M1650.64,805.178l-9.724,8.845c-8.387,-4.493 -29.409,-19.622 -33.452,-23.069c-4.24,-3.611 -32.525,-27.265 -36.408,-32.66c-3.916,-5.39 -8.879,-61.115 -8.372,-63.665c0.502,-2.52 24.584,-3.812 27.317,2.085c-0,-0 1.262,31.78 1.906,37.1c0.614,5.32 2.65,10.126 6.299,14.6c5.051,6.195 15.803,20.579 26.211,32.205c2.483,2.774 23.014,21.797 26.223,24.559Z" style="fill:#eea886;fill-rule:nonzero;"/><path d="M1591.98,697.421c0,-0 1.519,-42.32 -12.244,-41.795c-17.403,0.663 -20.013,21.953 -17.649,45.089c0,0 26.011,0.25 29.893,-3.294Z" style="fill:#ffc955;fill-rule:nonzero;"/><path d="M1645.95,801.035c-0,-0 1.295,2.04 3.171,2.672c3.239,1.095 8.03,-1.012 10.394,3.232c2.364,4.244 -9.046,14.846 -12.106,15.486c-3.067,0.644 -7.978,-4.125 -11.819,-13.536c-3.835,-9.41 10.36,-7.854 10.36,-7.854Z" style="fill:#eea886;fill-rule:nonzero;"/><path d="M1658.52,805.617c-0,0 5.818,4.43 11.704,10.119c5.163,4.988 10.412,11.54 9.087,12.776c-1.809,1.69 -5.331,-3.935 -10.777,-8.555c-5.018,-4.255 -4.732,-2.613 -4.732,-2.613c0,-0 -0.056,-0.473 4.52,5.182c4.917,6.079 9.999,13.293 8.484,14.336c-0.95,0.651 -0.994,0.826 -3.142,-1.106c0.997,1.363 0.763,1.813 0.234,2.26c-2.743,2.301 -11.361,-5.569 -14.786,-8.696c2.613,2.416 4.277,4.459 1.623,4.768c-3.038,0.358 -14.727,-11.29 -19.31,-15.08c-5.003,-4.132 17.095,-13.391 17.095,-13.391Z" style="fill:#eea886;fill-rule:nonzero;"/><path d="M1483.75,692.771c0,0 -4.642,33.307 -2.356,49.687c-0,0 2.423,1.802 7.244,0.346c0,0 1.203,-36.352 3.905,-49.262c0,-0 -1.485,-1.121 -8.793,-0.771Z" style="fill:#e0e0e0;fill-rule:nonzero;"/><rect x="1484.86" y="93.298" width="3.592" height="624.661" style="fill:#e0e0e0;fill-rule:nonzero;"/><path d="M1179.36,1630.14c-0,0 -1.824,12.78 -2.052,14.701c-0.23,1.921 -20.288,-1.128 -20.288,-1.128l-1.627,-15.218c-0,-0 21.458,-0.156 23.967,1.645Z" style="fill:#5c544d;fill-rule:nonzero;"/><path d="M1177.52,1643.21c-0,0 6.354,7.703 12.504,11.061c6.146,3.354 15.807,4.686 19.444,8.16c2.624,2.509 9.56,13.308 -15.974,13.092c-25.534,-0.219 -37.845,1.523 -40.581,-2.62c-2.737,-4.136 3.961,-30.56 3.961,-30.56c-0,0 6.045,2.2 20.646,0.867Z" style="fill:#3c4145;fill-rule:nonzero;"/><path d="M1323.11,1630.14c-0,0 -1.824,12.78 -2.051,14.701c-0.227,1.921 -20.293,-1.128 -20.293,-1.128l-1.623,-15.218c0,-0 21.461,-0.156 23.967,1.645Z" style="fill:#5c544d;fill-rule:nonzero;"/><path d="M1321.27,1643.21c-0,0 6.358,7.703 12.504,11.061c6.146,3.354 28.773,6.112 32.406,9.589c2.625,2.509 6.992,12.605 -28.936,11.663c-25.527,-0.673 -37.845,1.523 -40.581,-2.62c-2.736,-4.136 3.957,-30.56 3.957,-30.56c-0,0 5.699,2.349 20.65,0.867Z" style="fill:#3c4145;fill-rule:nonzero;"/><path d="M1186.48,1300.16c-0,0 -10.677,31.714 -9.27,59.05c1.404,27.332 -5.52,57.24 -8.353,85.793c-3.157,31.829 -16.079,107.188 -16.548,124.211c-0.469,17.028 2.011,71.402 2.011,71.402l25.857,0.595c0,0 21.722,-131.742 27.347,-145.181c5.625,-13.446 33.523,-109.28 34.458,-120.027c0.938,-10.755 -55.502,-75.843 -55.502,-75.843Z" style="fill:#33373b;fill-rule:nonzero;"/><path d="M1295.2,1305.81c0,-0 14.206,74.912 16.082,91.642c1.873,16.726 3.124,80.953 4.062,91.414c0.938,10.457 6.254,136.816 11.253,152.351l-33.065,0c0,0 -25.381,-91.861 -25.381,-135.327c0,-43.466 -19.604,-94.49 -32.261,-123.165c-12.657,-28.676 -41.627,-29.354 -49.411,-82.559c-0,0 98.186,-11.231 108.721,5.644Z" style="fill:#3c4145;fill-rule:nonzero;"/><path d="M1228.01,1049.79c-0,0 26.066,-9.742 38.079,10.103c12.017,19.839 10.859,59.556 -2.275,64.437c-13.137,4.888 -32.871,2.334 -39.598,-10.081c-6.723,-12.416 -12.798,-30.359 -12.504,-42.354c0.29,-11.994 9.459,-18.647 16.298,-22.105Z" style="fill:#eea886;fill-rule:nonzero;"/><path d="M1259.44,1123.11c0,0 -1.053,6.831 0.685,10.197c1.742,3.365 -32.782,3.454 -32.782,3.454c0,0 -2.803,-18.304 -8.112,-33.768c-5.316,-15.468 40.209,20.117 40.209,20.117Z" style="fill:#eea886;fill-rule:nonzero;"/><path d="M1219.23,1102.99c0,-0 2.383,3.927 12.107,2.405c9.723,-1.527 21.591,-14.467 25.653,-15.885c4.057,-1.422 4.098,-3.808 4.098,-3.808l2.539,3.715l4.319,0.268c-0,-0 -3.939,-11.574 1.999,-16.294c5.934,-4.717 -6.161,-37.462 -37.354,-26.558c0,-0 -23.955,6.6 -23.084,20.225c0.875,13.622 4.359,29.142 9.723,35.932Z" style="fill:#fccca2;fill-rule:nonzero;"/><path d="M1262.18,1132.9c0,-0 -0.111,-6.433 -3.026,-7.047c-2.915,-0.622 -32.168,-3.433 -35.745,-2.025l-0,7.49c-0,-0 6.89,4.243 38.771,1.582Z" style="fill:#e2d2ca;fill-rule:nonzero;"/><path d="M1260.44,1080.75c-0.544,-2.286 -6.355,-8.816 -8.581,-1.821c-2.223,6.988 3.365,16.395 6.477,15.587c3.116,-0.804 3.489,-7.974 2.104,-13.766Z" style="fill:#eea886;fill-rule:nonzero;"/><path d="M1262.18,1132.9c0,-0 16.038,5.766 34.614,13.658c0,0 21.368,7.974 23.68,31.576c1.229,12.527 14.567,79.014 17.069,84.639c2.498,5.622 32.078,95.994 33.117,97.866c1.042,1.876 -24.138,12.326 -25.806,11.492c-1.664,-0.83 -28.635,-82.42 -31.345,-88.466c-0,0 -15.524,-48.92 -15.941,-56.213c0,0 -0.446,20.784 -1.277,26.621c-0.833,5.834 13.804,119.115 13.387,122.243c-0.417,3.123 -66.532,7.091 -92.993,4.176c-26.461,-2.918 -47.814,-9.005 -47.814,-9.005c0,0 20.825,-89.4 20.185,-99.31c-1.393,-21.599 -8.611,-62.273 -8.611,-62.273l-21.577,40.674l27.619,71.055l-6.325,21.595c0,0 -51.321,-77.551 -52.985,-84.639c-1.668,-7.084 2.513,-16.108 5.223,-21.942c2.706,-5.829 20.501,-50.234 24.666,-56.484c4.166,-6.254 11.209,-31.282 28.23,-38.251c14.231,-5.822 38.113,-10.594 38.113,-10.594l38.771,1.582Z" style="fill:#495054;fill-rule:nonzero;"/><path d="M1297.46,1401.6l120.898,-31.006l-21.629,-84.341l-120.898,30.999l21.629,84.348Z" style="fill:#d6d6d6;fill-rule:nonzero;"/><path d="M1381.18,1379.09c-0,0 3.454,5.584 4.716,7.17c1.262,1.597 -3.101,2.599 -4.97,0.983c-1.872,-1.612 0.254,-8.153 0.254,-8.153Z" style="fill:#c98462;fill-rule:nonzero;"/><path d="M1356.01,1398.15c-0,-0 -2.04,-2.133 -2.479,-3.496c-0,0 -0.607,-2.546 -1.147,-4.329c-0.179,-0.566 -0.339,-1.054 -0.476,-1.359c-0.581,-1.273 -2.234,-3.898 -2.766,-7.349c-0.536,-3.439 -2.04,-18.911 -2.04,-18.911l9.362,-2.36l7.527,-1.586c0,0 16.254,16.212 17.121,19.365c0.082,0.309 0.153,0.618 0.197,0.913c0.477,2.739 -0.32,4.981 -0.234,6.447c0.026,0.536 -0.052,5.916 -1.303,6.924c-1.739,1.396 -3.511,1.661 -4.962,1.195c-0,0 -3.53,2.588 -6.467,2.431c0,0 -3.171,2.495 -6.775,1.259c-0,-0 -3.499,2.17 -5.558,0.856Z" style="fill:#de9d7d;fill-rule:nonzero;"/><path d="M1319.45,1300.33c0,-0 21.461,64.983 25.4,71.803c0,0 15.736,-3.306 25.806,-11.492l-23.557,-70.132l-27.649,9.821Z" style="fill:#495054;fill-rule:nonzero;"/></g><defs><linearGradient id="_Linear1" x1="0" y1="0" x2="1" y2="0" gradientUnits="userSpaceOnUse" gradientTransform="matrix(219.445,0,0,219.445,756.316,1415.72)"><stop offset="0" style="stop-color:#2f75a1;stop-opacity:1"/><stop offset="1" style="stop-color:#629c38;stop-opacity:1"/></linearGradient><linearGradient id="_Linear2" x1="0" y1="0" x2="1" y2="0" gradientUnits="userSpaceOnUse" gradientTransform="matrix(198.448,0,0,198.448,917.295,1538.17)"><stop offset="0" style="stop-color:#2f75a1;stop-opacity:1"/><stop offset="1" style="stop-color:#629c38;stop-opacity:1"/></linearGradient><linearGradient id="_Linear3" x1="0" y1="0" x2="1" y2="0" gradientUnits="userSpaceOnUse" gradientTransform="matrix(148.948,0,0,148.948,934.26,1567.03)"><stop offset="0" style="stop-color:#2f75a1;stop-opacity:1"/><stop offset="1" style="stop-color:#629c38;stop-opacity:1"/></linearGradient><linearGradient id="_Linear4" x1="0" y1="0" x2="1" y2="0" gradientUnits="userSpaceOnUse" gradientTransform="matrix(173.462,0,0,173.462,880.474,1447.17)"><stop offset="0" style="stop-color:#2f75a1;stop-opacity:1"/><stop offset="1" style="stop-color:#629c38;stop-opacity:1"/></linearGradient><linearGradient id="_Linear5" x1="0" y1="0" x2="1" y2="0" gradientUnits="userSpaceOnUse" gradientTransform="matrix(160.068,0,0,160.068,840.665,1695.98)"><stop offset="0" style="stop-color:#ff933f;stop-opacity:1"/><stop offset="1" style="stop-color:#ffcd44;stop-opacity:1"/></linearGradient><linearGradient id="_Linear6" x1="0" y1="0" x2="1" y2="0" gradientUnits="userSpaceOnUse" gradientTransform="matrix(160.068,0,0,160.068,840.665,1695.98)"><stop offset="0" style="stop-color:#c87231;stop-opacity:1"/><stop offset="1" style="stop-color:#ffcd44;stop-opacity:1"/></linearGradient><linearGradient id="_Linear7" x1="0" y1="0" x2="1" y2="0" gradientUnits="userSpaceOnUse" gradientTransform="matrix(853.216,0,0,853.216,1391.91,1706.64)"><stop offset="0" style="stop-color:#ff9e54;stop-opacity:1"/><stop offset="1" style="stop-color:#ffd154;stop-opacity:1"/></linearGradient><linearGradient id="_Linear8" x1="0" y1="0" x2="1" y2="0" gradientUnits="userSpaceOnUse" gradientTransform="matrix(853.216,0,0,853.216,996.458,1812.29)"><stop offset="0" style="stop-color:#e27e2f;stop-opacity:1"/><stop offset="1" style="stop-color:#e8a12d;stop-opacity:1"/></linearGradient><linearGradient id="_Linear9" x1="0" y1="0" x2="1" y2="0" gradientUnits="userSpaceOnUse" gradientTransform="matrix(1126.44,0,0,1126.44,1283.51,998.442)"><stop offset="0" style="stop-color:#ff9e54;stop-opacity:1"/><stop offset="1" style="stop-color:#ffd154;stop-opacity:1"/></linearGradient><linearGradient id="_Linear10" x1="0" y1="0" x2="1" y2="0" gradientUnits="userSpaceOnUse" gradientTransform="matrix(940.472,0,0,940.472,1349.94,950.951)"><stop offset="0" style="stop-color:#3f4b60;stop-opacity:1"/><stop offset="1" style="stop-color:#2f3d5b;stop-opacity:1"/></linearGradient><linearGradient id="_Linear11" x1="0" y1="0" x2="1" y2="0" gradientUnits="userSpaceOnUse" gradientTransform="matrix(528.269,0,0,528.269,1556.94,1540.94)"><stop offset="0" style="stop-color:#ff9e54;stop-opacity:1"/><stop offset="1" style="stop-color:#ffd154;stop-opacity:1"/></linearGradient></defs></svg>